<svg width="566" height="522" viewBox="0 0 566 522" fill="none" xmlns="http://www.w3.org/2000/svg">
<g clip-path="url(#clip0_53_27)">
<path fill-rule="evenodd" clip-rule="evenodd" d="M103.749 23.4418C106.114 22.5993 108.602 21.4794 110.521 19.8582C112.8 17.9325 113.727 15.4524 114.349 12.8418C115.149 9.48789 115.468 5.91511 116.437 2.55572C116.796 1.30818 117.486 0.83661 117.782 0.627328C118.531 0.0986869 119.288 -0.0426185 120 0.0103815C120.844 0.0715353 122.003 0.390872 122.766 1.80556C122.874 2.00805 123.016 2.31656 123.111 2.7392C123.18 3.04904 123.225 4.01797 123.298 4.41751C123.482 5.40141 123.635 6.38534 123.779 7.37467C124.259 10.6675 124.535 13.4642 126.05 16.4893C128.106 20.5961 130.167 23.1088 132.961 24.2218C135.662 25.2981 138.893 25.0957 143.02 24.2518C143.412 24.1567 143.801 24.0751 144.186 24.0085C146.005 23.6905 147.745 24.885 148.102 26.6979C148.46 28.5094 147.303 30.2747 145.5 30.6729C145.123 30.7558 144.752 30.8346 144.386 30.9066C138.808 32.2874 132.352 37.215 128.6 41.5298C127.443 42.8602 125.75 46.5797 124.023 48.9525C122.748 50.7028 121.316 51.8566 120.113 52.2643C119.307 52.5388 118.628 52.4967 118.066 52.3581C117.251 52.157 116.574 51.7152 116.055 51.0127C115.772 50.6281 115.51 50.113 115.385 49.4553C115.325 49.1386 115.318 48.3342 115.32 47.97C114.968 46.7591 114.537 45.5768 114.223 44.3551C113.474 41.4401 112.005 39.5946 110.26 37.1566C108.628 34.8749 106.875 33.4411 104.305 32.2969C103.971 32.2154 101.273 31.5549 100.321 31.1757C98.9292 30.6199 98.266 29.689 98.0254 29.1875C97.6164 28.3368 97.5743 27.5935 97.6558 26.9738C97.7768 26.0592 98.1872 25.2765 98.9156 24.6445C99.3668 24.2518 100.041 23.8699 100.943 23.6837C101.64 23.5383 103.49 23.4541 103.749 23.4418ZM119.575 18.6908C119.7 18.9694 119.833 19.2494 119.974 19.532C122.986 25.5469 126.353 28.9049 130.446 30.5343L130.584 30.5873C127.845 32.6203 125.367 34.8925 123.472 37.071C122.692 37.9679 121.659 39.8311 120.544 41.7418C119.53 38.4463 117.872 36.117 115.787 33.202C114.195 30.9773 112.526 29.3031 110.475 27.9387C112.066 27.122 113.584 26.1652 114.907 25.0481C117.108 23.1877 118.564 21.0323 119.575 18.6908Z" fill="#C6C6C6"/>
</g>
<path fill-rule="evenodd" clip-rule="evenodd" d="M256.271 0C428.252 0 561 145.548 561 317.057C561 460.201 399.808 522 256.271 522C144.481 522 57 428.54 57 317.057C57 170.928 109.739 0 256.271 0Z" fill="url(#paint0_linear_53_27)"/>
<path fill-rule="evenodd" clip-rule="evenodd" d="M392.315 274.036C461.915 274.667 539.32 286.765 560.924 331.193C582.593 375.753 531.284 416.661 475.28 444.649C416.495 474.026 341.819 498.245 280.451 471.355C210.974 440.911 179.558 380.06 209.071 328.001C235.304 281.728 318.582 273.367 392.315 274.036Z" fill="url(#paint1_linear_53_27)"/>
<path d="M474.937 239.714C479.996 239.714 484.098 235.612 484.098 230.558V173.925C484.098 168.866 479.996 164.764 474.937 164.764H465.272C460.213 164.764 456.115 168.866 456.115 173.925V230.558C456.115 235.612 460.213 239.714 465.272 239.714H474.937Z" fill="#E60F3F"/>
<path d="M484.098 230.558V202.949H456.115V230.558C456.115 235.612 460.213 239.714 465.272 239.714H474.937C479.996 239.714 484.098 235.612 484.098 230.558Z" fill="#740D23"/>
<path d="M291.195 154.778C291.195 157.217 289.224 159.196 286.79 159.196C284.351 159.196 282.381 157.217 282.381 154.778V125.614C282.381 123.184 284.351 121.214 286.79 121.214C289.224 121.214 291.195 123.184 291.195 125.614V154.778Z" fill="#676572"/>
<path d="M285.679 154.03C285.071 154.03 284.575 153.538 284.575 152.921V123.756C284.575 123.152 285.071 122.656 285.679 122.656C286.292 122.656 286.788 123.152 286.788 123.756V152.921C286.788 153.538 286.292 154.03 285.679 154.03Z" fill="#B8B5CC"/>
<path d="M433.489 154.778C433.489 157.217 431.514 159.196 429.08 159.196C426.646 159.196 424.671 157.217 424.671 154.778V112.409C424.671 109.975 426.646 108 429.08 108C431.514 108 433.489 109.975 433.489 112.409V154.778Z" fill="#676572"/>
<path d="M427.976 154.03C427.367 154.03 426.867 153.538 426.867 152.921V110.552C426.867 109.943 427.367 109.443 427.976 109.443C428.584 109.443 429.08 109.943 429.08 110.552V152.921C429.08 153.538 428.584 154.03 427.976 154.03Z" fill="#B8B5CC"/>
<path d="M274.36 276.533C274.36 277.39 273.661 278.084 272.809 278.084C271.957 278.084 271.263 277.39 271.263 276.533V243.303C271.263 242.446 271.957 241.752 272.809 241.752C273.661 241.752 274.36 242.446 274.36 243.303V276.533Z" fill="#676572"/>
<path d="M276.272 262.454C276.272 262.963 276.989 263.374 277.868 263.374C278.747 263.374 279.468 262.963 279.468 262.454V242.676C279.468 242.167 278.747 241.752 277.868 241.752C276.989 241.752 276.272 242.167 276.272 242.676V262.454Z" fill="#676572"/>
<path d="M298.051 243.127C298.051 245.165 296.388 246.828 294.35 246.828H257.878C255.831 246.828 254.177 245.165 254.177 243.127V216.397C254.177 214.35 255.831 212.696 257.878 212.696H294.35C296.388 212.696 298.051 214.35 298.051 216.397V243.127Z" fill="#B8B5CC"/>
<path d="M456.116 342.066C456.116 347.674 451.567 352.232 445.954 352.232H248.09C242.477 352.232 237.933 347.674 237.933 342.066V326.061C237.933 320.449 242.477 315.9 248.09 315.9H445.954C451.567 315.9 456.116 320.449 456.116 326.061V342.066Z" fill="#676572"/>
<path d="M456.882 139.211H250.375C244.763 139.211 240.209 143.755 240.209 149.368V228.132C240.209 233.741 244.763 238.29 250.375 238.29H298.646C304.254 238.29 308.807 233.741 308.807 228.132V222.028C308.807 216.415 313.356 211.866 318.969 211.866H384.722C390.335 211.866 394.884 216.415 394.884 222.028V271.056C394.884 276.669 390.335 281.222 384.722 281.222H358.818H318.969H237.166C231.549 281.222 227 285.771 227 291.384V327.211C227 332.819 231.549 337.368 237.166 337.368H368.979H417.538H456.882C462.495 337.368 467.044 332.819 467.044 327.211V149.368C467.044 143.755 462.495 139.211 456.882 139.211Z" fill="#FFD766"/>
<path d="M276.74 274.108C277.736 274.108 278.547 274.919 278.547 275.916C278.547 276.917 277.736 277.724 276.74 277.724H268.882C267.881 277.724 267.069 276.917 267.069 275.916C267.069 274.919 267.881 274.108 268.882 274.108H276.74Z" fill="#676572"/>
<path d="M298.646 238.29C304.254 238.29 308.807 233.741 308.807 228.132C308.807 228.132 319.961 211.866 325.574 211.866H384.722C390.335 211.866 394.884 216.415 394.884 222.028V225.756C398.734 227.204 401.489 230.882 401.489 235.237V281.222H467.044V153.096C465.935 152.677 464.744 152.42 463.487 152.42H436.049H375.584H305.25H290.851H256.98C251.367 152.42 246.818 156.964 246.818 162.582V237.618C247.927 238.033 249.118 238.29 250.375 238.29H298.646Z" fill="#F5B500"/>
<path d="M391.327 294.436H243.766C238.158 294.436 233.609 298.98 233.609 304.597V336.701C234.718 337.111 235.904 337.368 237.166 337.368H368.979H417.538H456.882C462.495 337.368 467.044 332.819 467.044 327.211V294.436H391.327Z" fill="#F5B500"/>
<path d="M278.332 261.291C279.062 261.291 279.648 262.607 279.648 264.226C279.648 265.849 279.062 267.161 278.332 267.161H272.584C271.853 267.161 271.263 265.849 271.263 264.226C271.263 262.607 271.853 261.291 272.584 261.291H278.332Z" fill="#676572"/>
<path d="M295.617 238.29H298.89V139.211H295.617V238.29Z" fill="#333333"/>
<path d="M289.558 139.211V238.29H292.835V139.211H289.558Z" fill="#333333"/>
<path d="M456.931 188.748C456.931 173.37 444.461 160.896 429.079 160.896C413.697 160.896 401.227 173.37 401.227 188.748C401.227 204.13 413.697 216.6 429.079 216.6C444.461 216.6 456.931 204.13 456.931 188.748Z" fill="#333333"/>
<path d="M455.363 188.748C455.363 174.231 443.597 162.46 429.08 162.46C414.568 162.46 402.792 174.231 402.792 188.748C402.792 203.265 414.568 215.031 429.08 215.031C443.597 215.031 455.363 203.265 455.363 188.748Z" fill="#666666"/>
<path d="M444.268 188.748C444.268 180.363 437.47 173.564 429.08 173.564C420.69 173.564 413.892 180.363 413.892 188.748C413.892 197.142 420.69 203.936 429.08 203.936C437.47 203.936 444.268 197.142 444.268 188.748Z" fill="#333333"/>
<path d="M430.094 166.328C430.094 164.493 429.638 163.001 429.079 163.001C428.52 163.001 428.065 164.493 428.065 166.328C428.065 168.168 428.52 169.651 429.079 169.651C429.638 169.651 430.094 168.168 430.094 166.328Z" fill="white"/>
<path d="M430.094 211.172C430.094 209.342 429.638 207.85 429.079 207.85C428.52 207.85 428.065 209.342 428.065 211.172C428.065 213.007 428.52 214.49 429.079 214.49C429.638 214.49 430.094 213.007 430.094 211.172Z" fill="white"/>
<path d="M422.362 167.338C421.735 165.616 420.802 164.367 420.275 164.561C419.752 164.746 419.833 166.301 420.464 168.032C421.091 169.75 422.024 170.999 422.547 170.809C423.074 170.616 422.989 169.06 422.362 167.338Z" fill="white"/>
<path d="M437.704 209.477C437.068 207.75 436.14 206.515 435.617 206.7C435.089 206.894 435.17 208.449 435.797 210.171C436.424 211.894 437.361 213.138 437.889 212.944C438.416 212.755 438.326 211.204 437.704 209.477Z" fill="white"/>
<path d="M415.447 170.931C414.266 169.529 412.958 168.672 412.535 169.033C412.106 169.389 412.715 170.823 413.896 172.23C415.077 173.636 416.385 174.484 416.804 174.123C417.232 173.762 416.619 172.342 415.447 170.931Z" fill="white"/>
<path d="M444.276 205.28C443.091 203.882 441.788 203.03 441.364 203.382C440.931 203.742 441.544 205.181 442.721 206.583C443.898 207.989 445.205 208.832 445.633 208.472C446.062 208.12 445.449 206.691 444.276 205.28Z" fill="white"/>
<path d="M410.176 176.675C408.589 175.755 407.07 175.403 406.786 175.881C406.511 176.364 407.575 177.504 409.162 178.419C410.753 179.335 412.268 179.691 412.539 179.208C412.827 178.726 411.763 177.59 410.176 176.675Z" fill="white"/>
<path d="M449.011 199.09C447.424 198.179 445.905 197.823 445.625 198.301C445.35 198.792 446.414 199.929 448.001 200.853C449.588 201.759 451.103 202.115 451.382 201.633C451.662 201.146 450.593 200.01 449.011 199.09Z" fill="white"/>
<path d="M407.182 183.87C405.379 183.554 403.828 183.739 403.733 184.285C403.63 184.835 405.023 185.542 406.831 185.863C408.638 186.183 410.185 185.989 410.279 185.439C410.379 184.893 408.99 184.19 407.182 183.87Z" fill="white"/>
<path d="M451.345 191.651C449.542 191.34 447.996 191.521 447.897 192.071C447.797 192.621 449.19 193.328 450.994 193.644C452.797 193.973 454.343 193.779 454.443 193.229C454.537 192.675 453.153 191.976 451.345 191.651Z" fill="white"/>
<path d="M406.835 191.66C405.036 191.976 403.639 192.675 403.738 193.229C403.828 193.779 405.379 193.964 407.182 193.644C408.99 193.328 410.383 192.621 410.279 192.071C410.185 191.521 408.647 191.34 406.835 191.66Z" fill="white"/>
<path d="M450.995 183.865C449.196 184.19 447.803 184.884 447.902 185.439C447.997 185.989 449.543 186.183 451.355 185.863C453.154 185.547 454.547 184.835 454.448 184.285C454.344 183.739 452.807 183.55 450.995 183.865Z" fill="white"/>
<path d="M409.176 199.094C407.589 200.01 406.521 201.146 406.8 201.633C407.08 202.115 408.595 201.759 410.177 200.853C411.773 199.929 412.837 198.788 412.557 198.301C412.278 197.823 410.768 198.179 409.176 199.094Z" fill="white"/>
<path d="M448.006 176.67C446.423 177.59 445.35 178.721 445.634 179.204C445.914 179.682 447.429 179.335 449.02 178.419C450.612 177.513 451.671 176.364 451.392 175.881C451.112 175.403 449.602 175.751 448.006 176.67Z" fill="white"/>
<path d="M413.913 205.275C412.732 206.682 412.119 208.12 412.547 208.472C412.975 208.832 414.283 207.989 415.455 206.583C416.641 205.181 417.245 203.738 416.826 203.377C416.393 203.021 415.094 203.878 413.913 205.275Z" fill="white"/>
<path d="M442.732 170.927C441.56 172.333 440.942 173.762 441.366 174.118C441.798 174.475 443.106 173.636 444.287 172.22C445.468 170.823 446.072 169.389 445.644 169.029C445.22 168.672 443.917 169.52 442.732 170.927Z" fill="white"/>
<path d="M420.487 209.477C419.86 211.199 419.77 212.75 420.293 212.944C420.82 213.138 421.754 211.894 422.38 210.171C423.007 208.44 423.088 206.88 422.57 206.695C422.042 206.511 421.109 207.75 420.487 209.477Z" fill="white"/>
<path d="M435.82 167.334C435.193 169.056 435.103 170.616 435.622 170.805C436.149 170.99 437.087 169.75 437.718 168.019C438.349 166.301 438.426 164.746 437.903 164.552C437.38 164.367 436.447 165.602 435.82 167.334Z" fill="white"/>
<path d="M472.647 335.318C477.225 334.488 481.687 337.954 483.229 346.45C484.773 354.944 481.515 358.111 476.938 358.94C472.361 359.771 468.197 357.955 466.656 349.459C465.112 340.962 468.07 336.149 472.647 335.318ZM477.897 364.231C484.525 363.028 489.242 358.444 487.008 346.145C486.909 345.598 486.791 345.081 486.676 344.562L486.711 344.555C481.375 315.495 477.388 294.397 474.439 279.156C468.313 247.501 453.932 243.423 453.932 243.423C453.932 243.423 476.564 319.539 478.672 331.256C476.495 329.989 474.103 329.59 471.688 330.029C465.062 331.233 460.778 338.201 463.009 350.502C465.245 362.8 471.272 365.434 477.897 364.231Z" fill="#FFD766"/>
<path d="M517.013 325.665C522.595 332.251 521.356 336.621 517.808 339.629C514.26 342.637 509.745 343.144 504.163 336.557C498.58 329.972 498.735 324.325 502.283 321.315C505.831 318.307 511.429 319.078 517.013 325.665ZM520.132 323.511C512.048 313.974 503.945 312.86 498.807 317.215C496.934 318.802 495.722 320.904 495.32 323.389C487.607 314.321 443.175 248.506 443.175 248.506C443.175 248.506 437.193 262.202 457.758 287.038C467.66 298.994 481.426 315.468 500.49 338.045L500.516 338.021C500.845 338.44 501.169 338.86 501.527 339.283C509.611 348.818 516.147 348.086 521.285 343.73C526.423 339.375 528.215 333.047 520.132 323.511Z" fill="#FFD766"/>
<path d="M472.647 335.318C477.225 334.488 481.687 337.954 483.229 346.45C484.773 354.944 481.515 358.111 476.938 358.94C472.361 359.771 468.197 357.955 466.656 349.459C465.112 340.962 468.07 336.149 472.647 335.318ZM477.897 364.231C484.525 363.028 489.242 358.444 487.008 346.145C486.909 345.598 486.791 345.081 486.676 344.562L486.711 344.555C481.375 315.495 477.388 294.397 474.439 279.156C468.313 247.501 453.932 243.423 453.932 243.423C453.932 243.423 476.564 319.539 478.672 331.256C476.495 329.989 474.103 329.59 471.688 330.029C465.062 331.233 460.778 338.201 463.009 350.502C465.245 362.8 471.272 365.434 477.897 364.231Z" fill="#676572"/>
<path d="M517.013 325.665C522.595 332.251 521.356 336.621 517.808 339.629C514.26 342.637 509.745 343.144 504.163 336.557C498.58 329.972 498.735 324.325 502.283 321.315C505.831 318.307 511.429 319.078 517.013 325.665ZM520.132 323.511C512.048 313.974 503.945 312.86 498.807 317.215C496.934 318.802 495.722 320.904 495.32 323.389C487.607 314.321 443.175 248.506 443.175 248.506C443.175 248.506 437.193 262.202 457.758 287.038C467.66 298.994 481.426 315.468 500.49 338.045L500.516 338.021C500.845 338.44 501.169 338.86 501.527 339.283C509.611 348.818 516.147 348.086 521.285 343.73C526.423 339.375 528.215 333.047 520.132 323.511Z" fill="#B8B5CC"/>
<path d="M466.656 349.459C465.112 340.962 468.07 336.149 472.647 335.318C477.225 334.488 481.687 337.954 483.229 346.45C484.773 354.944 481.515 358.111 476.938 358.94C472.361 359.771 468.197 357.955 466.656 349.459ZM477.897 364.231C484.525 363.028 489.242 358.444 487.008 346.145C486.909 345.598 486.791 345.081 486.676 344.562L486.711 344.555C486.085 341.145 485.48 337.855 484.891 334.661C482.953 333.163 480.843 331.928 478.617 330.971L478.672 331.256C476.495 329.989 474.103 329.59 471.688 330.029C465.062 331.233 460.778 338.201 463.009 350.502C465.245 362.8 471.272 365.434 477.897 364.231Z" fill="#740D23"/>
<path d="M502.283 321.315C505.832 318.307 511.429 319.077 517.013 325.665C522.596 332.251 521.357 336.62 517.809 339.629C514.26 342.637 509.745 343.144 504.163 336.557C498.58 329.972 498.736 324.325 502.283 321.315ZM500.491 338.045L500.516 338.021C500.846 338.44 501.169 338.86 501.527 339.283C509.611 348.818 516.148 348.086 521.286 343.729C526.423 339.375 528.215 333.046 520.132 323.511C512.049 313.974 503.945 312.86 498.808 317.215C496.934 318.802 495.723 320.904 495.32 323.389C495.166 323.208 494.99 322.996 494.809 322.768C494.093 325.03 493.652 327.383 493.511 329.771C495.756 332.434 498.08 335.189 500.491 338.045Z" fill="#E60F3F"/>
<path d="M471.64 302.477C472.423 304.134 474.4 304.841 476.057 304.059C477.714 303.276 478.421 301.3 477.637 299.643C476.855 297.986 474.88 297.278 473.223 298.061C471.566 298.844 470.857 300.82 471.64 302.477Z" fill="#740D23"/>
<path d="M422.028 393.112L421.714 393.104C413.286 392.008 407.967 386.806 407.116 378.833C406.281 370.993 410.063 362.24 415.05 360.464C416.3 360.019 419.503 359.436 422.219 363.604C425.861 369.196 428.055 370.487 441.252 370.336C442.088 370.328 442.773 370.997 442.782 371.833C442.79 372.669 442.116 373.347 441.285 373.366C427.808 373.519 424.174 372.156 419.681 365.257C417.969 362.635 416.531 363.149 416.065 363.318C412.788 364.484 409.405 371.724 410.129 378.512C410.623 383.151 413.103 388.928 422.105 390.101C422.933 390.208 423.518 390.969 423.41 391.799C423.316 392.521 422.725 393.059 422.028 393.112Z" fill="#740D23"/>
<path d="M441.133 370.337C430.983 370.447 427.384 369.679 424.588 366.731C423.052 365.697 421.915 364.242 420.592 362.211C420.281 361.735 419.962 361.325 419.642 360.967C417.716 359.784 415.915 360.156 415.05 360.464C410.063 362.24 406.281 370.993 407.116 378.833C407.535 382.752 409.037 385.996 411.453 388.419C413.761 390.131 416.663 391.264 420.088 391.711L420.4 391.719C421.099 391.666 421.69 391.128 421.782 390.404C421.801 390.28 421.773 390.161 421.759 390.042C417.855 389.472 415.212 388.016 413.443 386.169C410.044 383.766 408.831 380.196 408.503 377.119C407.779 370.331 411.163 363.089 414.44 361.924C414.868 361.768 416.131 361.349 417.672 363.351C418.253 363.591 418.938 364.12 419.681 365.257C420.672 366.779 421.626 368.019 422.649 369.044C426.056 371.489 430.66 372.076 439.661 371.972C440.491 371.954 441.165 371.276 441.157 370.44L441.133 370.337Z" fill="#E60F3F"/>
<path d="M469.21 402.359C469.21 401.342 468.387 400.519 467.371 400.519H439.474C438.456 400.519 437.632 401.342 437.632 402.359L428.547 412.943C428.547 413.961 429.371 414.784 430.388 414.784H476.456C477.472 414.784 478.296 413.961 478.296 412.943L469.21 402.359Z" fill="#F5B500"/>
<path d="M437.632 358.427C437.632 359.443 438.456 360.267 439.472 360.267H467.368C468.387 360.267 469.21 359.443 469.21 358.427L478.296 347.842C478.296 346.824 477.472 346 476.455 346H430.387C429.371 346 428.547 346.824 428.547 347.842L437.632 358.427Z" fill="#F5B500"/>
<path d="M447.838 400.519H439.474C438.456 400.519 437.632 401.342 437.632 402.359L428.547 412.943C428.547 413.961 429.371 414.784 430.388 414.784H442.504L447.838 400.519Z" fill="#FFD766"/>
<path d="M442.504 346H430.387C429.371 346 428.547 346.824 428.547 347.842L437.632 358.427C437.632 359.443 438.456 360.267 439.472 360.267H447.838L442.504 346Z" fill="#FFD766"/>
<path d="M471.72 360.101C471.72 361.008 470.987 361.743 470.08 361.743H436.765C435.856 361.743 435.123 361.008 435.123 360.101C435.123 359.196 435.856 358.461 436.765 358.461H470.08C470.987 358.461 471.72 359.196 471.72 360.101Z" fill="#740D23"/>
<path d="M436.765 358.461C435.856 358.461 435.123 359.196 435.123 360.101L435.144 360.206L435.251 360.227H468.565C469.472 360.227 470.205 359.492 470.205 358.587L470.184 358.481L470.08 358.461H436.765Z" fill="#E60F3F"/>
<path d="M471.72 363.383C471.72 364.289 470.987 365.024 470.08 365.024H436.765C435.856 365.024 435.123 364.289 435.123 363.383C435.123 362.476 435.856 361.743 436.765 361.743H470.08C470.987 361.743 471.72 362.476 471.72 363.383Z" fill="#740D23"/>
<path d="M436.765 361.743C435.856 361.743 435.123 362.476 435.123 363.383L435.144 363.487L435.251 363.509H468.565C469.472 363.509 470.205 362.775 470.205 361.868L470.184 361.763L470.08 361.743H436.765Z" fill="#E60F3F"/>
<path d="M471.72 366.664C471.72 367.571 470.987 368.306 470.08 368.306H436.765C435.856 368.306 435.123 367.571 435.123 366.664C435.123 365.757 435.856 365.024 436.765 365.024H470.08C470.987 365.024 471.72 365.757 471.72 366.664Z" fill="#740D23"/>
<path d="M436.765 365.024C435.856 365.024 435.123 365.757 435.123 366.664L435.144 366.769L435.251 366.791H468.565C469.472 366.791 470.205 366.057 470.205 365.149L470.184 365.044L470.08 365.024H436.765Z" fill="#E60F3F"/>
<path d="M471.72 369.945C471.72 370.852 470.987 371.587 470.08 371.587H436.765C435.856 371.587 435.123 370.852 435.123 369.945C435.123 369.039 435.856 368.306 436.765 368.306H470.08C470.987 368.306 471.72 369.039 471.72 369.945Z" fill="#740D23"/>
<path d="M436.765 368.306C435.856 368.306 435.123 369.039 435.123 369.945L435.144 370.051L435.251 370.073H468.565C469.472 370.073 470.205 369.339 470.205 368.432L470.184 368.325L470.08 368.306H436.765Z" fill="#E60F3F"/>
<path d="M471.72 373.227C471.72 374.135 470.987 374.868 470.08 374.868H436.765C435.856 374.868 435.123 374.135 435.123 373.227C435.123 372.32 435.856 371.587 436.765 371.587H470.08C470.987 371.587 471.72 372.32 471.72 373.227Z" fill="#740D23"/>
<path d="M436.765 371.587C435.856 371.587 435.123 372.32 435.123 373.227L435.144 373.333L435.251 373.355H468.565C469.472 373.355 470.205 372.62 470.205 371.713L470.184 371.607L470.08 371.587H436.765Z" fill="#E60F3F"/>
<path d="M471.72 376.509C471.72 377.416 470.987 378.149 470.08 378.149H436.765C435.856 378.149 435.123 377.416 435.123 376.509C435.123 375.603 435.856 374.868 436.765 374.868H470.08C470.987 374.868 471.72 375.603 471.72 376.509Z" fill="#740D23"/>
<path d="M436.765 374.868C435.856 374.868 435.123 375.603 435.123 376.509L435.144 376.615L435.251 376.636H468.565C469.472 376.636 470.205 375.901 470.205 374.995L470.184 374.888L470.08 374.868H436.765Z" fill="#E60F3F"/>
<path d="M471.72 379.792C471.72 380.697 470.987 381.432 470.08 381.432H436.765C435.856 381.432 435.123 380.697 435.123 379.792C435.123 378.884 435.856 378.149 436.765 378.149H470.08C470.987 378.149 471.72 378.884 471.72 379.792Z" fill="#740D23"/>
<path d="M436.765 378.149C435.856 378.149 435.123 378.884 435.123 379.792L435.144 379.896L435.251 379.918H468.565C469.472 379.918 470.205 379.183 470.205 378.276L470.184 378.171L470.08 378.149H436.765Z" fill="#E60F3F"/>
<path d="M471.72 383.073C471.72 383.979 470.987 384.713 470.08 384.713H436.765C435.856 384.713 435.123 383.979 435.123 383.073C435.123 382.167 435.856 381.432 436.765 381.432H470.08C470.987 381.432 471.72 382.167 471.72 383.073Z" fill="#740D23"/>
<path d="M436.765 381.432C435.856 381.432 435.123 382.167 435.123 383.073L435.144 383.178L435.251 383.197H468.565C469.472 383.197 470.205 382.466 470.205 381.557L470.184 381.454L470.08 381.432H436.765Z" fill="#E60F3F"/>
<path d="M471.72 386.355C471.72 387.26 470.987 387.995 470.08 387.995H436.765C435.856 387.995 435.123 387.26 435.123 386.355C435.123 385.448 435.856 384.713 436.765 384.713H470.08C470.987 384.713 471.72 385.448 471.72 386.355Z" fill="#740D23"/>
<path d="M436.765 384.713C435.856 384.713 435.123 385.448 435.123 386.355L435.144 386.459L435.251 386.48H468.565C469.472 386.48 470.205 385.747 470.205 384.84L470.184 384.735L470.08 384.713H436.765Z" fill="#E60F3F"/>
<path d="M471.72 389.636C471.72 390.542 470.987 391.276 470.08 391.276H436.765C435.856 391.276 435.123 390.542 435.123 389.636C435.123 388.73 435.856 387.995 436.765 387.995H470.08C470.987 387.995 471.72 388.73 471.72 389.636Z" fill="#740D23"/>
<path d="M436.765 387.995C435.856 387.995 435.123 388.73 435.123 389.636L435.144 389.742L435.251 389.761H468.565C469.472 389.761 470.205 389.03 470.205 388.121L470.184 388.016L470.08 387.995H436.765Z" fill="#E60F3F"/>
<path d="M471.72 392.918C471.72 393.823 470.987 394.557 470.08 394.557H436.765C435.856 394.557 435.123 393.823 435.123 392.918C435.123 392.011 435.856 391.276 436.765 391.276H470.08C470.987 391.276 471.72 392.011 471.72 392.918Z" fill="#740D23"/>
<path d="M436.765 391.276C435.856 391.276 435.123 392.011 435.123 392.918L435.144 393.023L435.251 393.044H468.565C469.472 393.044 470.205 392.309 470.205 391.404L470.184 391.297L470.08 391.276H436.765Z" fill="#E60F3F"/>
<path d="M471.72 396.197C471.72 397.106 470.987 397.84 470.08 397.84H436.765C435.856 397.84 435.123 397.106 435.123 396.197C435.123 395.292 435.856 394.557 436.765 394.557H470.08C470.987 394.557 471.72 395.292 471.72 396.197Z" fill="#740D23"/>
<path d="M436.765 394.557C435.856 394.557 435.123 395.292 435.123 396.197L435.144 396.306L435.251 396.325H468.565C469.472 396.325 470.205 395.591 470.205 394.685L470.184 394.579L470.08 394.557H436.765Z" fill="#E60F3F"/>
<path d="M471.72 399.48C471.72 400.387 470.987 401.121 470.08 401.121H436.765C435.856 401.121 435.123 400.387 435.123 399.48C435.123 398.575 435.856 397.84 436.765 397.84H470.08C470.987 397.84 471.72 398.575 471.72 399.48Z" fill="#740D23"/>
<path d="M436.765 397.84C435.856 397.84 435.123 398.575 435.123 399.48L435.144 399.587L435.251 399.607H468.565C469.472 399.607 470.205 398.872 470.205 397.967L470.184 397.86L470.08 397.84H436.765Z" fill="#E60F3F"/>
<path d="M336.947 346.011C336.759 346.099 336.271 345.45 335.856 344.562C335.442 343.672 335.258 342.879 335.446 342.792C335.634 342.704 336.122 343.355 336.536 344.244C336.951 345.134 337.134 345.926 336.947 346.011ZM334.683 341.16C334.142 341.412 334.584 343.508 334.836 344.052C335.09 344.592 352.652 381.11 353.196 380.858C353.738 380.604 337.054 343.678 336.8 343.135C336.548 342.592 335.227 340.907 334.683 341.16Z" fill="#676572"/>
<path d="M336.947 346.011C336.759 346.099 336.271 345.45 335.856 344.562C335.442 343.672 335.258 342.879 335.446 342.792C335.634 342.704 336.122 343.355 336.536 344.244C336.951 345.134 337.134 345.926 336.947 346.011ZM334.543 341.304C334.238 341.85 334.611 343.567 334.836 344.052C335.063 344.535 349.076 373.671 352.471 379.751C349.86 373.304 336.444 343.89 336.219 343.407C335.992 342.923 335.022 341.484 334.543 341.304Z" fill="#B8B5CC"/>
<path d="M355.167 339.8C355.115 339.204 354.451 337.167 353.852 337.22C353.256 337.271 352.956 339.392 353.008 339.99C353.06 340.586 357.074 380.907 357.671 380.855C358.268 380.803 355.219 340.396 355.167 339.8Z" fill="#676572"/>
<path d="M354.527 339.856C354.48 339.324 354.059 337.639 353.672 337.308C353.198 337.715 352.962 339.456 353.008 339.99C353.055 340.522 356.259 372.702 357.371 379.571C357.122 372.628 354.574 340.39 354.527 339.856Z" fill="#B8B5CC"/>
<path d="M357.061 336.939C356.907 335.167 355.345 333.858 353.572 334.012C351.801 334.167 350.489 335.73 350.645 337.5C350.8 339.272 352.363 340.582 354.133 340.428C355.905 340.274 357.217 338.711 357.061 336.939Z" fill="#740D23"/>
<path d="M353.49 334.024C351.762 334.22 350.494 335.758 350.646 337.5C350.798 339.244 352.315 340.539 354.051 340.431L353.49 334.024Z" fill="#E60F3F"/>
<path d="M352.691 336.29C353.099 335.803 353.232 335.244 352.988 335.04C352.744 334.835 352.216 335.063 351.809 335.551C351.401 336.038 351.267 336.596 351.509 336.802C351.756 337.006 352.283 336.776 352.691 336.29Z" fill="white"/>
<path d="M375.891 343.855C375.993 343.264 375.879 341.127 375.289 341.023C374.7 340.919 373.86 342.89 373.756 343.479C373.652 344.068 367.093 384.055 367.684 384.158C368.272 384.262 375.787 344.444 375.891 343.855Z" fill="#676572"/>
<path d="M375.257 343.744C375.349 343.219 375.379 341.48 375.092 341.062C374.527 341.331 373.848 342.952 373.756 343.479C373.663 344.004 368.428 375.919 367.724 382.842C369.281 376.07 375.164 344.268 375.257 343.744Z" fill="#B8B5CC"/>
<path d="M378.46 341.582C378.77 339.83 377.599 338.162 375.85 337.852C374.096 337.543 372.427 338.711 372.119 340.464C371.81 342.215 372.979 343.886 374.731 344.192C376.483 344.502 378.152 343.334 378.46 341.582Z" fill="#F5B500"/>
<path d="M375.767 337.842C374.045 337.583 372.423 338.74 372.119 340.464C371.815 342.187 372.943 343.83 374.649 344.175L375.767 337.842Z" fill="#FFD766"/>
<path d="M374.407 339.824C374.927 339.459 375.2 338.954 375.019 338.692C374.836 338.432 374.267 338.516 373.747 338.882C373.227 339.246 372.952 339.752 373.134 340.011C373.318 340.274 373.886 340.187 374.407 339.824Z" fill="white"/>
<path d="M399.84 351.163C400.183 350.674 400.983 348.686 400.491 348.343C400.002 347.999 398.408 349.431 398.064 349.92C397.722 350.411 374.878 383.879 375.37 384.222C375.859 384.566 399.496 351.652 399.84 351.163Z" fill="#676572"/>
<path d="M399.312 350.795C399.62 350.358 400.38 348.796 400.296 348.295C399.671 348.299 398.371 349.483 398.064 349.92C397.758 350.359 379.526 377.068 375.963 383.047C380.236 377.567 399.008 351.232 399.312 350.795Z" fill="#B8B5CC"/>
<path d="M403.13 350.19C404.15 348.732 403.795 346.724 402.339 345.704C400.882 344.686 398.875 345.04 397.855 346.495C396.834 347.954 397.188 349.959 398.646 350.98C400.102 352 402.11 351.647 403.13 350.19Z" fill="#333333"/>
<path d="M402.268 345.662C400.818 344.7 398.859 345.063 397.855 346.495C396.851 347.93 397.18 349.895 398.579 350.928L402.268 345.662Z" fill="#666666"/>
<path d="M400.199 346.883C400.824 346.771 401.287 346.43 401.231 346.116C401.176 345.804 400.626 345.639 399.999 345.75C399.374 345.86 398.911 346.203 398.967 346.516C399.02 346.828 399.572 346.994 400.199 346.883Z" fill="white"/>
<path d="M393.734 393.09L393.738 392.956C393.738 376.247 380.193 362.702 363.483 362.702C346.774 362.702 333.229 376.247 333.229 392.956L333.233 393.09H393.734Z" fill="#F5B500"/>
<path d="M340.735 386.735C360.191 386.735 375.963 380.535 375.963 372.886C375.963 368.874 371.617 365.262 364.683 362.732C364.284 362.716 363.884 362.702 363.483 362.702C349 362.702 336.9 372.88 333.931 386.474C336.133 386.643 338.405 386.735 340.735 386.735Z" fill="#FFD766"/>
<path d="M397.964 388.86C397.964 386.235 395.835 384.104 393.208 384.104H333.756C331.129 384.104 329 386.235 329 388.86V397.052C329 399.679 331.129 401.808 333.756 401.808H393.208C395.835 401.808 397.964 399.679 397.964 397.052V388.86Z" fill="#E60F3F"/>
<path d="M343.645 392.404V400.595C343.645 401.016 343.717 401.419 343.821 401.808H393.209C395.835 401.808 397.965 399.679 397.965 397.052V388.86C397.965 388.44 397.893 388.038 397.79 387.647H348.402C345.774 387.647 343.645 389.778 343.645 392.404Z" fill="#740D23"/>
<path d="M293.279 373.083C293.39 372.712 292.059 371.981 290.301 371.45C288.544 370.918 287.027 370.788 286.914 371.16C286.801 371.532 288.134 372.262 289.894 372.793C291.652 373.326 293.168 373.455 293.279 373.083ZM283.688 370.182C284.008 369.111 288.013 369.371 289.085 369.698C290.156 370.02 384.005 398.001 383.68 399.078C383.355 400.147 288.983 373.905 287.91 373.58C286.84 373.255 283.362 371.254 283.688 370.182Z" fill="#676572"/>
<path d="M293.279 373.083C293.39 372.712 292.059 371.981 290.301 371.45C288.544 370.918 287.027 370.788 286.914 371.16C286.801 371.532 288.135 372.262 289.894 372.793C291.652 373.326 293.169 373.454 293.279 373.083ZM283.918 369.881C284.846 369.171 288.127 369.406 289.085 369.698C290.04 369.985 369.267 393.356 381.439 398.029C368.798 394.906 289.212 372.717 288.259 372.427C287.3 372.139 284.377 370.721 283.918 369.881Z" fill="#B8B5CC"/>
<path d="M291.363 371.817L291.338 371.88C289.297 376.797 289.306 381.149 291.368 384.811C295.044 391.341 304.972 395.883 320.875 398.313L321.578 398.421C322.188 398.518 322.606 399.092 322.512 399.704C322.416 400.315 321.842 400.734 321.228 400.637L320.538 400.53C303.918 397.992 293.445 393.076 289.412 385.914C287.015 381.656 286.953 376.694 289.211 371.166C289.556 371.242 289.921 371.335 290.301 371.45C290.68 371.565 291.033 371.689 291.363 371.817Z" fill="#740D23"/>
<path d="M266.774 347.753C273.937 340.753 281.704 338.935 287.544 342.89C293.308 346.794 296.956 357.051 291.837 370.562C290.889 370.261 290.165 370.035 289.696 369.887C294.455 357.456 291.352 348.181 286.285 344.751C281.394 341.436 274.687 343.16 268.341 349.359C255.191 362.209 254.394 397.147 266.823 416.112C273.006 425.554 284.878 434.991 306.32 426.258C311.626 424.098 316.497 421.832 321.209 419.639C336.225 412.647 348.077 407.128 353.792 416.414C354.116 416.943 353.953 417.634 353.427 417.959L353.234 418.052C352.74 418.239 352.168 418.056 351.881 417.59C347.214 410.004 336.701 414.9 322.158 421.671C317.641 423.773 312.524 426.157 307.166 428.335C289.382 435.573 274.34 431.682 264.943 417.343C252.035 397.639 252.99 361.22 266.774 347.753Z" fill="#740D23"/>
<path d="M341.559 415.481C341.842 415.376 342.081 415.156 342.201 414.855L343.544 411.546C343.778 410.972 343.501 410.316 342.929 410.082C342.356 409.849 341.699 410.125 341.466 410.7L340.123 414.01C339.89 414.585 340.165 415.238 340.739 415.472C341.013 415.583 341.304 415.578 341.559 415.481Z" fill="#740D23"/>
<path d="M341.631 410.451C341.931 410.061 342.451 409.889 342.929 410.082C343.501 410.316 343.778 410.972 343.544 411.546L342.695 413.643C342.564 413.814 342.408 413.96 342.211 414.034C341.954 414.131 341.664 414.135 341.391 414.024C340.816 413.793 340.54 413.138 340.773 412.562L341.631 410.451Z" fill="#E60F3F"/>
<path d="M344.167 415.492C344.395 415.405 344.597 415.244 344.733 415.016C345.049 414.484 344.872 413.795 344.34 413.481L339.304 410.49C338.774 410.173 338.085 410.347 337.767 410.881C337.451 411.415 337.627 412.101 338.161 412.418L343.196 415.407C343.5 415.59 343.858 415.609 344.167 415.492Z" fill="#740D23"/>
<path d="M339.304 410.49L344.34 413.481C344.566 413.614 344.711 413.821 344.799 414.048C344.494 414.159 344.145 414.14 343.845 413.961L338.812 410.971C338.589 410.839 338.447 410.637 338.358 410.413C338.661 410.304 339.005 410.313 339.304 410.49Z" fill="#E60F3F"/>
<path d="M291.338 371.88C289.297 376.797 289.307 381.149 291.369 384.811C295.045 391.341 304.972 395.883 320.876 398.313L321.579 398.421C321.984 398.484 322.285 398.767 322.428 399.122C322.258 399.184 322.074 399.22 321.88 399.189L321.189 399.084C304.568 396.546 294.097 391.626 290.064 384.466C287.883 380.591 287.648 376.128 289.322 371.192C289.634 371.264 289.96 371.347 290.301 371.45C290.68 371.565 291.033 371.689 291.363 371.817L291.338 371.88Z" fill="#E60F3F"/>
<path d="M260.904 356.36C262.494 352.968 264.446 350.027 266.774 347.753C273.937 340.753 281.704 338.935 287.544 342.89C293.308 346.794 296.956 357.051 291.837 370.562C290.948 370.281 290.26 370.064 289.788 369.917L289.916 369.573C295.318 356.568 292.158 346.84 286.937 343.303C282.045 339.989 275.338 341.713 268.991 347.912C266.474 350.373 264.413 353.646 262.808 357.461C255.301 373.422 256.465 400.307 266.823 416.112C273.006 425.554 284.878 434.991 306.32 426.258C311.626 424.098 316.497 421.832 321.209 419.639C336.225 412.647 348.076 407.128 353.792 416.414L353.864 416.608C353.375 416.783 352.815 416.602 352.532 416.142C347.866 408.557 337.351 413.453 322.808 420.224C318.292 422.327 313.174 424.71 307.816 426.889C290.033 434.126 274.989 430.236 265.594 415.896C255.17 399.986 253.792 373.183 260.904 356.36Z" fill="#E60F3F"/>
<path fill-rule="evenodd" clip-rule="evenodd" d="M506.728 66.7946C506.54 65.6821 506.399 64.5822 506.308 63.4822C506.17 61.8322 506.255 60.1696 506.206 58.5196C506.185 57.8196 506.101 55.9946 506.135 55.7321C506.441 53.4446 508.287 53.0946 508.827 53.0321C509.089 52.9946 511.771 52.6947 512.35 55.6697C513.06 59.3072 513.288 62.9697 513.036 66.5572C513.623 69.6072 514.625 72.6446 515.949 75.3946C521.216 86.3321 531.254 87.3946 542.129 87.2946C543.801 87.2696 545.19 88.5821 545.278 90.2446C545.365 91.9196 544.12 93.3696 542.455 93.5196C536.376 94.1071 525.591 98.9822 521.862 104.057C521.082 105.12 520.629 107.682 520.029 110.195C519.191 113.682 518.195 117.132 517.079 118.582C516.911 118.807 514.875 121.107 514.267 121.445C512.807 122.245 511.639 121.782 510.975 121.357C510.311 120.932 509.56 120.095 509.26 118.707C508.946 117.257 509.211 114.282 509.163 113.645C508.985 111.332 508.523 106.795 507.579 102.895C507.07 100.795 506.528 98.8571 505.63 97.8946C502.308 94.3321 496.995 94.8572 492.521 95.4447C492.008 95.5072 491.494 95.5822 490.981 95.6447C489.16 96.1822 487.226 96.5821 485.182 96.8196C482.096 97.1821 481.589 94.3446 481.561 94.1571C481.504 93.7446 481.29 91.6197 483.616 90.7697C483.87 90.6822 485.743 90.2696 486.464 90.1071C487.469 89.8821 488.485 89.7072 489.505 89.5447C500.041 86.2697 505.764 77.0696 506.728 66.7946ZM510.344 78.1572C514.321 86.3822 520.357 90.3572 527.512 92.1572H527.511C523.044 94.4947 518.98 97.4197 516.826 100.357C516.009 101.47 515.259 103.707 514.583 106.22C514.216 103.882 513.721 101.395 513.068 99.2696C512.324 96.8446 511.322 94.8322 510.205 93.6322C508.047 91.3197 505.34 90.0322 502.429 89.3947C505.914 86.3072 508.556 82.4572 510.344 78.1572Z" fill="#C6C6C6"/>
<path fill-rule="evenodd" clip-rule="evenodd" d="M27.7275 154.795C27.54 153.682 27.3988 152.582 27.3075 151.482C27.17 149.832 27.255 148.17 27.2063 146.52C27.185 145.82 27.1013 143.995 27.135 143.732C27.4413 141.445 29.2875 141.095 29.8275 141.032C30.0887 140.995 32.7712 140.695 33.35 143.67C34.06 147.307 34.2875 150.97 34.0363 154.557C34.6225 157.607 35.625 160.645 36.9488 163.395C42.2163 174.332 52.2537 175.395 63.1287 175.295C64.8012 175.27 66.19 176.582 66.2775 178.245C66.365 179.92 65.12 181.37 63.455 181.52C57.3763 182.107 46.5912 186.982 42.8625 192.057C42.0825 193.12 41.6287 195.682 41.0287 198.195C40.1912 201.682 39.195 205.132 38.0788 206.582C37.9113 206.807 35.875 209.107 35.2675 209.445C33.8075 210.245 32.6388 209.782 31.975 209.357C31.3113 208.932 30.56 208.095 30.26 206.707C29.9463 205.257 30.2113 202.282 30.1625 201.645C29.985 199.332 29.5225 194.795 28.5788 190.895C28.07 188.795 27.5275 186.857 26.63 185.895C23.3075 182.332 17.995 182.857 13.5213 183.445C13.0075 183.507 12.4938 183.582 11.9813 183.645C10.16 184.182 8.22622 184.582 6.18247 184.82C3.09622 185.182 2.58876 182.345 2.56126 182.157C2.50376 181.745 2.28999 179.62 4.61624 178.77C4.86999 178.682 6.74251 178.27 7.46376 178.107C8.46876 177.882 9.48498 177.707 10.505 177.545C21.0412 174.27 26.7638 165.07 27.7275 154.795ZM31.3438 166.157C35.3213 174.382 41.3575 178.357 48.5125 180.157H48.5113C44.0438 182.495 39.98 185.42 37.8262 188.357C37.0087 189.47 36.2588 191.707 35.5825 194.22C35.2163 191.882 34.7213 189.395 34.0675 187.27C33.3238 184.845 32.3225 182.832 31.205 181.632C29.0475 179.32 26.34 178.032 23.4287 177.395C26.9137 174.307 29.5563 170.457 31.3438 166.157Z" fill="#C6C6C6"/>
<defs>
<linearGradient id="paint0_linear_53_27" x1="57" y1="261" x2="561" y2="261" gradientUnits="userSpaceOnUse">
<stop stop-color="#F8C4C4"/>
<stop offset="1" stop-color="#BC6969"/>
</linearGradient>
<linearGradient id="paint1_linear_53_27" x1="198" y1="378.5" x2="566" y2="378.5" gradientUnits="userSpaceOnUse">
<stop stop-color="#62B69F"/>
<stop offset="1" stop-color="#D5DA91"/>
</linearGradient>
<clipPath id="clip0_53_27">
<rect width="53" height="53" fill="white" transform="translate(97)"/>
</clipPath>
</defs>
</svg>
