<svg width="834" height="1194" viewBox="0 0 834 1194" fill="none" xmlns="http://www.w3.org/2000/svg">
<path d="M548.396 -254.573C546.495 -247.318 516.756 -159.488 663.669 39.2522C810.583 237.992 699.338 486.921 604.938 555.22C510.538 623.518 352.253 582.55 236.901 744.599C144.618 874.239 298.976 1173.69 387.689 1307.21" stroke="#F1F1F1" stroke-width="3"/>
<path fill-rule="evenodd" clip-rule="evenodd" d="M538.188 1648.37C401.836 1631.72 236.706 1645.08 159.726 1531.8C80.605 1415.37 55.6756 1209.81 156.073 1086.06C266.289 950.201 487.353 1081.96 617.31 967.777C743.243 857.126 656.191 534.791 809.821 511.637C962.537 488.622 926.341 781.422 1003.74 909.538C1040.31 970.063 1115.26 992.125 1140.94 1059.7C1167.53 1129.68 1158.52 1209.86 1148.12 1289.44C1135.41 1386.58 1146.72 1502.12 1074.13 1570.61C1001.57 1639.07 898.542 1597.67 807.399 1610.89C715.412 1624.24 627.451 1659.27 538.188 1648.37Z" fill="url(#paint0_linear_53_23)"/>
<defs>
<linearGradient id="paint0_linear_53_23" x1="1160.31" y1="1443.52" x2="278.7" y2="887.99" gradientUnits="userSpaceOnUse">
<stop stop-color="#FAF0D7"/>
<stop offset="1" stop-color="#DEF5E5"/>
</linearGradient>
</defs>
</svg>
