<svg width="430" height="932" viewBox="0 0 430 932" fill="none" xmlns="http://www.w3.org/2000/svg">
<path d="M275.392 -69.1344C274.129 -64.3165 254.38 -5.99043 351.942 125.989C449.505 257.968 375.629 423.277 312.94 468.633C250.251 513.988 145.137 486.782 68.5338 594.396C7.2509 680.487 109.757 879.346 168.67 968.015" stroke="#F1F1F1" stroke-width="3"/>
<path fill-rule="evenodd" clip-rule="evenodd" d="M232.971 1203.3C157.771 1194.11 66.7004 1201.48 24.2445 1139.01C-19.3914 1074.79 -33.1402 961.424 22.2299 893.174C83.0154 818.249 204.935 890.918 276.608 827.942C346.061 766.917 298.051 589.145 382.779 576.376C467.004 563.682 447.042 725.165 489.73 795.823C509.897 829.203 551.231 841.37 565.394 878.64C580.061 917.234 575.093 961.452 569.353 1005.34C562.347 1058.92 568.585 1122.64 528.546 1160.41C488.53 1198.17 431.71 1175.33 381.444 1182.63C330.712 1189.99 282.201 1209.31 232.971 1203.3Z" fill="url(#paint0_linear_53_26)"/>
<defs>
<linearGradient id="paint0_linear_53_26" x1="576.08" y1="1090.32" x2="89.8604" y2="783.938" gradientUnits="userSpaceOnUse">
<stop stop-color="#FAF0D7"/>
<stop offset="1" stop-color="#DEF5E5"/>
</linearGradient>
</defs>
</svg>
