<svg width="1440" height="1024" viewBox="0 0 1440 1024" fill="none" xmlns="http://www.w3.org/2000/svg">
<path d="M-42 923C-34.5 923 58 929.5 213 737C368 544.5 637 589 727 663C817 737 817.5 900.5 1003.5 971C1152.3 1027.4 1402.83 802.167 1509.5 682.5" stroke="#F1F1F1" stroke-width="3"/>
<path fill-rule="evenodd" clip-rule="evenodd" d="M999.207 1639.29C814.498 1616.73 590.805 1634.84 486.523 1481.38C379.342 1323.66 345.572 1045.19 481.575 877.551C630.879 693.517 930.344 872.009 1106.39 717.326C1276.99 567.432 1159.06 130.781 1367.17 99.4158C1574.05 68.2374 1525.02 464.879 1629.87 638.432C1679.41 720.422 1780.93 750.309 1815.72 841.852C1851.75 936.649 1839.54 1045.26 1825.45 1153.07C1808.24 1284.66 1823.56 1441.17 1725.21 1533.96C1626.92 1626.69 1487.36 1570.61 1363.89 1588.52C1239.28 1606.6 1120.13 1654.05 999.207 1639.29Z" fill="url(#paint0_linear_53_20)"/>
<defs>
<linearGradient id="paint0_linear_53_20" x1="1841.97" y1="1361.79" x2="647.692" y2="609.241" gradientUnits="userSpaceOnUse">
<stop stop-color="#FAF0D7"/>
<stop offset="1" stop-color="#DEF5E5"/>
</linearGradient>
</defs>
</svg>
