<svg width="430" height="932" viewBox="0 0 430 932" fill="none" xmlns="http://www.w3.org/2000/svg">
<path d="M13.7903 -66.3851C65.9056 -61.6009 224.943 -18.8549 255.513 165.82C305.039 465.018 93.9322 397.91 111.586 672.513C123.356 855.578 237.129 920.693 284.083 932.63" stroke="#F1F1F1" stroke-width="3"/>
<path fill-rule="evenodd" clip-rule="evenodd" d="M335.663 551.098C410.736 547.737 463.701 631.767 502.237 696.389C532.612 747.324 487.127 823.926 525.376 869.228C589.304 944.943 768.301 920.314 774.843 1019.26C780.676 1107.49 622.966 1098.49 543.011 1135.97C497.058 1157.52 455.565 1188.17 405.023 1192.62C359.886 1196.59 320.42 1168.53 276.02 1159.47C226.108 1149.29 168.484 1167.27 128.128 1136.14C86.3655 1103.92 71.15 1047.44 63.1465 995.257C55.0922 942.738 62.8094 889.556 82.7613 840.323C103.333 789.561 142.354 752.098 178.39 710.885C228.606 653.457 259.524 554.506 335.663 551.098Z" fill="url(#paint0_linear_53_25)"/>
<defs>
<linearGradient id="paint0_linear_53_25" x1="60" y1="872" x2="775" y2="872" gradientUnits="userSpaceOnUse">
<stop stop-color="#F4BFBF"/>
<stop offset="1" stop-color="#FAF0D7"/>
</linearGradient>
</defs>
</svg>
