<svg width="834" height="1041" viewBox="0 0 834 1041" fill="none" xmlns="http://www.w3.org/2000/svg">
<path d="M-102 107.494C-70.3333 65.8272 50.1745 -46.4139 223 25.4939C503 141.994 334.245 285.491 576.5 415.994C738 502.994 853.5 440.994 888.5 407.494" stroke="#F1F1F1" stroke-width="3"/>
<path fill-rule="evenodd" clip-rule="evenodd" d="M652.146 286.169C781.817 280.369 873.302 425.393 939.865 536.92C992.33 624.828 913.764 757.032 979.831 835.217C1090.25 965.89 1399.43 923.383 1410.73 1094.15C1420.8 1246.42 1148.4 1230.9 1010.29 1295.58C930.919 1332.76 859.248 1385.66 771.949 1393.34C693.985 1400.2 625.816 1351.76 549.125 1336.13C462.913 1318.56 363.381 1349.59 293.676 1295.86C221.54 1240.26 195.259 1142.79 181.435 1052.72C167.523 962.085 180.853 870.299 215.315 785.331C250.848 697.723 318.247 633.066 380.492 561.939C467.229 462.826 520.632 292.051 652.146 286.169Z" fill="url(#paint0_linear_53_22)"/>
<defs>
<linearGradient id="paint0_linear_53_22" x1="176" y1="840" x2="1411" y2="840" gradientUnits="userSpaceOnUse">
<stop stop-color="#F4BFBF"/>
<stop offset="1" stop-color="#FAF0D7"/>
</linearGradient>
</defs>
</svg>
