<svg width="1440" height="856" viewBox="0 0 1440 856" fill="none" xmlns="http://www.w3.org/2000/svg">
<path d="M-23.5 412.617C8.16667 370.951 128.675 258.71 301.5 330.617C581.5 447.117 412.745 590.615 655 721.117C816.5 808.117 932 746.117 967 712.617" stroke="#F1F1F1" stroke-width="3"/>
<path fill-rule="evenodd" clip-rule="evenodd" d="M1188.95 0.14015C1296.78 -4.68084 1372.86 115.867 1428.21 208.572C1471.84 281.643 1406.51 391.535 1461.45 456.524C1553.27 565.143 1810.38 529.811 1819.77 671.754C1828.15 798.326 1601.62 785.424 1486.78 839.192C1420.77 870.094 1361.17 914.07 1288.58 920.451C1223.75 926.15 1167.06 885.893 1103.28 872.901C1031.59 858.295 948.822 884.086 890.856 839.425C830.87 793.208 809.015 712.188 797.519 637.321C785.951 561.98 797.035 485.685 825.694 415.057C855.242 342.235 911.29 288.491 963.051 229.368C1035.18 146.983 1079.59 5.02963 1188.95 0.14015Z" fill="url(#paint0_linear_53_19)"/>
<defs>
<linearGradient id="paint0_linear_53_19" x1="793" y1="460.5" x2="1820" y2="460.5" gradientUnits="userSpaceOnUse">
<stop stop-color="#F4BFBF"/>
<stop offset="1" stop-color="#FAF0D7"/>
</linearGradient>
</defs>
</svg>
