<svg width="83" height="88" viewBox="0 0 83 88" fill="none" xmlns="http://www.w3.org/2000/svg">
<path fill-rule="evenodd" clip-rule="evenodd" d="M22.9473 71.9126C17.1688 68.6271 10.8841 66.1329 4.77577 63.7607C3.45897 63.2545 1.96346 63.8836 1.5367 65.1871C1.01265 66.4676 1.68199 67.9238 2.90173 68.406C8.82345 70.6998 14.9252 73.0961 20.4287 76.2443C21.6 76.9216 23.1453 76.5099 23.8536 75.3174C24.5616 74.126 24.1184 72.5909 22.9473 71.9126Z" fill="#C6C6C6"/>
<path fill-rule="evenodd" clip-rule="evenodd" d="M47.9113 51.8757C40.4483 39.1921 31.3974 27.5083 24.1964 14.5993C23.5659 13.4041 22.0261 12.966 20.8288 13.6383C19.6312 14.3115 19.1528 15.8248 19.8803 17.0441C27.0739 29.9833 36.1175 41.6962 43.5731 54.4099C44.3065 55.6059 45.8555 56.005 47.0594 55.3065C48.1659 54.5849 48.6447 53.0717 47.9113 51.8757Z" fill="#C6C6C6"/>
<path fill-rule="evenodd" clip-rule="evenodd" d="M76.3877 17.2904C75.2289 23.2013 74.0696 29.1122 72.9106 35.0241C72.5785 36.3615 73.4872 37.6835 74.8621 37.9559C76.2372 38.2273 77.4899 37.3297 77.8222 35.9914C78.9834 30.0707 80.1449 24.1512 81.3059 18.2315C81.541 16.87 80.6309 15.5549 79.2541 15.2902C77.9743 15.0497 76.6226 15.9299 76.3877 17.2904Z" fill="#C6C6C6"/>
</svg>
