<svg width="70" height="74" viewBox="0 0 70 74" fill="none" xmlns="http://www.w3.org/2000/svg">
<path fill-rule="evenodd" clip-rule="evenodd" d="M19.3871 60.7561C14.5051 57.9803 9.19541 55.873 4.03471 53.8689C2.9222 53.4411 1.65871 53.9726 1.29816 55.074C0.855405 56.1558 1.4209 57.3861 2.45142 57.7935C7.45444 59.7314 12.6096 61.7559 17.2592 64.4157C18.2488 64.9879 19.5544 64.6401 20.1528 63.6327C20.751 62.626 20.3765 61.3291 19.3871 60.7561Z" fill="#B88C82"/>
<path fill-rule="evenodd" clip-rule="evenodd" d="M40.4782 43.8277C34.1729 33.1119 26.5262 23.2407 20.4424 12.3343C19.9097 11.3246 18.6087 10.9545 17.5972 11.5224C16.5854 12.0912 16.1812 13.3697 16.7959 14.3999C22.8734 25.3316 30.514 35.2274 36.813 45.9687C37.4326 46.9792 38.7413 47.3164 39.7584 46.7263C40.6932 46.1166 41.0978 44.8382 40.4782 43.8277Z" fill="#B88C82"/>
<path fill-rule="evenodd" clip-rule="evenodd" d="M64.5368 14.6079C63.5578 19.6019 62.5783 24.5957 61.5991 29.5904C61.3185 30.7203 62.0863 31.8372 63.2479 32.0674C64.4097 32.2967 65.468 31.5384 65.7488 30.4077C66.7298 25.4055 67.7112 20.4043 68.692 15.403C68.8906 14.2528 68.1217 13.1417 66.9585 12.9181C65.8773 12.7149 64.7352 13.4585 64.5368 14.6079Z" fill="#B88C82"/>
</svg>
