<svg width="600" height="600" viewBox="0 0 600 600" fill="none" xmlns="http://www.w3.org/2000/svg">
<path fill-rule="evenodd" clip-rule="evenodd" d="M339.142 123.535C419.211 126.509 527.694 95.8634 550.97 172.533C573.966 248.284 462.263 276.301 400.584 325.929C317.959 392.411 255.437 535.042 161.42 485.973C49.3952 427.505 17.0098 268.229 72.6444 154.77C116.18 65.9862 240.327 119.865 339.142 123.535Z" fill="url(#paint0_linear_21_3126)"/>
<path d="M495.255 107.093C495.383 109.036 495.354 110.993 495.17 112.922C495.142 113.163 495.127 113.405 495.085 113.631C495.071 113.745 495.056 113.858 495.042 113.972C495.028 114.142 495.085 113.702 495.042 113.958C495.028 114.029 495.028 114.114 495.014 114.185C494.943 114.667 494.858 115.149 494.773 115.631C494.588 116.596 494.347 117.56 494.064 118.496C493.922 118.936 493.78 119.376 493.624 119.815C493.539 120.028 493.468 120.241 493.369 120.453C493.354 120.496 493.298 120.567 493.298 120.624C493.298 120.482 493.383 120.439 493.326 120.539C493.269 120.652 493.227 120.766 493.17 120.879C492.83 121.631 492.418 122.354 491.965 123.035C491.865 123.191 491.752 123.347 491.638 123.503C491.582 123.588 491.511 123.673 491.454 123.758C491.426 123.787 491.397 123.829 491.383 123.857C491.525 123.602 491.44 123.787 491.397 123.843C491.142 124.169 490.858 124.496 490.575 124.808C490.291 125.106 490.007 125.389 489.695 125.673C489.553 125.801 489.397 125.928 489.241 126.056C489.171 126.113 489.1 126.169 489.029 126.226C488.915 126.311 489.241 126.056 489.071 126.198C489.014 126.24 488.972 126.269 488.915 126.311C488.546 126.581 488.163 126.836 487.766 127.063C487.369 127.29 486.958 127.46 486.547 127.673C486.561 127.658 486.788 127.573 486.632 127.63C486.575 127.658 486.518 127.673 486.462 127.701C486.348 127.744 486.235 127.786 486.107 127.829C485.894 127.9 485.681 127.971 485.455 128.027C485.015 128.155 484.561 128.24 484.107 128.297C483.866 128.325 483.582 128.58 483.469 128.779C483.355 128.992 483.313 129.219 483.341 129.46C483.412 129.97 483.852 130.382 484.391 130.382C485.426 130.367 486.462 130.367 487.497 130.438C487.738 130.453 487.965 130.481 488.206 130.509C488.22 130.509 488.476 130.552 488.305 130.523C488.121 130.495 488.376 130.538 488.405 130.538C488.532 130.552 488.66 130.58 488.788 130.609C489.298 130.708 489.795 130.835 490.277 130.992C490.362 131.02 490.461 131.062 490.546 131.091C490.589 131.105 490.646 131.133 490.688 131.148C490.773 131.176 490.858 131.261 490.631 131.119C490.802 131.233 491.014 131.289 491.199 131.389C491.553 131.573 491.894 131.772 492.206 131.998C492.291 132.055 492.376 132.112 492.461 132.183C492.489 132.211 492.532 132.24 492.56 132.254C492.702 132.353 492.504 132.211 492.489 132.197C492.631 132.339 492.816 132.467 492.972 132.594C493.284 132.878 493.581 133.162 493.865 133.474C493.993 133.615 494.12 133.757 494.234 133.899C494.291 133.97 494.347 134.041 494.418 134.126C494.503 134.239 494.262 133.913 494.39 134.083C494.432 134.14 494.461 134.183 494.503 134.239C494.744 134.566 494.957 134.906 495.17 135.246C495.383 135.601 495.581 135.97 495.766 136.339C495.851 136.523 495.936 136.707 496.021 136.892C496.035 136.934 496.049 136.977 496.078 137.005C495.964 136.736 496.035 136.892 496.063 136.963C496.106 137.076 496.149 137.175 496.191 137.289C496.517 138.14 496.758 139.005 496.943 139.884C497 140.14 497.042 140.381 497.085 140.636C497.099 140.735 497.113 140.849 497.141 140.948C497.156 141.033 497.17 141.104 497.17 141.189C497.17 141.147 497.156 141.104 497.156 141.061C497.156 141.118 497.17 141.161 497.17 141.217C497.226 141.728 497.283 142.224 497.312 142.735C497.468 145.075 497.326 147.43 497.17 149.756C497.141 150.28 497.595 150.734 498.092 150.805C498.616 150.876 499.099 150.55 499.255 150.039C500.375 146.479 500.517 142.721 501.354 139.104C501.538 138.296 501.751 137.487 502.035 136.693C502.091 136.523 502.162 136.353 502.219 136.197C502.247 136.112 502.304 136.026 502.332 135.927C502.332 135.941 502.233 136.168 502.304 136.012C502.318 135.97 502.347 135.913 502.361 135.87C502.517 135.53 502.673 135.204 502.843 134.878C503.183 134.225 503.58 133.601 504.02 133.02C504.048 132.991 504.077 132.949 504.091 132.92C503.949 133.133 503.992 133.048 504.034 132.991C504.091 132.92 504.148 132.849 504.205 132.779C504.318 132.637 504.446 132.495 504.573 132.353C504.814 132.084 505.07 131.828 505.325 131.601C505.481 131.46 505.623 131.332 505.793 131.204C505.821 131.176 505.85 131.162 505.892 131.133C505.637 131.332 505.821 131.19 505.864 131.148C505.949 131.091 506.02 131.034 506.105 130.977C506.417 130.765 506.743 130.566 507.084 130.396C507.169 130.353 507.268 130.311 507.353 130.268C507.396 130.254 507.424 130.24 507.467 130.226C507.665 130.141 507.254 130.311 507.438 130.24C507.623 130.169 507.807 130.098 508.006 130.041C508.204 129.985 508.389 129.928 508.587 129.885C508.672 129.871 508.771 129.843 508.857 129.829C508.942 129.814 509.339 129.758 508.97 129.8C509.254 129.758 509.523 129.715 509.722 129.488C509.878 129.318 509.977 129.119 510.02 128.878C510.091 128.396 509.778 127.815 509.254 127.715C508.842 127.63 508.431 127.531 508.02 127.403C507.835 127.346 507.665 127.276 507.481 127.219C507.382 127.176 507.282 127.134 507.183 127.105C507.509 127.233 507.14 127.077 507.055 127.049C506.304 126.694 505.58 126.269 504.914 125.772C504.885 125.744 504.843 125.715 504.814 125.701C504.673 125.588 504.871 125.744 504.885 125.758C504.814 125.687 504.715 125.63 504.63 125.559C504.46 125.418 504.304 125.29 504.148 125.148C503.836 124.864 503.524 124.567 503.24 124.24C502.956 123.928 502.687 123.616 502.417 123.29C502.389 123.248 502.361 123.205 502.318 123.162C502.332 123.177 502.474 123.361 502.361 123.219C502.29 123.134 502.233 123.049 502.162 122.964C502.034 122.794 501.907 122.609 501.793 122.439C501.325 121.744 500.914 121.007 500.545 120.255C500.46 120.071 500.375 119.9 500.29 119.716C500.262 119.673 500.247 119.617 500.233 119.574C500.162 119.418 500.262 119.631 500.262 119.645C500.219 119.517 500.162 119.404 500.12 119.29C499.964 118.908 499.822 118.51 499.68 118.113C499.084 116.369 498.645 114.568 498.29 112.752C498.092 111.745 497.907 110.724 497.751 109.703C497.68 109.221 497.609 108.752 497.539 108.27C497.51 108.029 497.468 107.802 497.439 107.561C497.425 107.476 497.368 107.079 497.425 107.433C497.411 107.306 497.397 107.192 497.382 107.065C497.34 106.767 497.283 106.526 497.07 106.313C496.886 106.129 496.588 105.987 496.319 106.001C496.049 106.015 495.751 106.1 495.567 106.313C495.383 106.54 495.212 106.824 495.255 107.093C495.751 110.823 496.319 114.596 497.468 118.184C498.574 121.602 500.375 124.864 503.198 127.148C504.8 128.439 506.644 129.431 508.672 129.814C508.771 129.119 508.857 128.424 508.956 127.729C508.077 127.843 507.268 128.07 506.445 128.424C505.722 128.736 505.055 129.162 504.431 129.658C503.212 130.609 502.205 131.842 501.41 133.162C500.574 134.537 499.964 136.055 499.552 137.615C499.056 139.459 498.772 141.359 498.489 143.246C498.177 145.373 497.85 147.501 497.198 149.557C497.893 149.656 498.588 149.741 499.283 149.841C499.552 145.643 499.794 141.246 498.375 137.204C497.198 133.828 494.886 130.665 491.525 129.247C489.27 128.297 486.802 128.268 484.391 128.297C484.49 128.992 484.575 129.687 484.674 130.382C488.249 129.885 491.298 127.573 493.383 124.737C495.695 121.588 496.702 117.631 497.184 113.802C497.468 111.575 497.524 109.334 497.368 107.107C497.326 106.554 496.9 106.015 496.305 106.044C495.766 106.058 495.212 106.497 495.255 107.093Z" fill="#AC725D"/>
<path d="M455.869 135.927C456.11 136.991 456.322 138.069 456.507 139.147C456.606 139.672 456.691 140.196 456.762 140.721C456.805 140.991 456.847 141.246 456.876 141.515C456.89 141.629 456.904 141.756 456.918 141.87C456.946 142.068 456.918 141.884 456.918 141.856C456.932 141.941 456.947 142.026 456.947 142.125C457.23 144.267 457.4 146.408 457.485 148.564C457.528 149.486 457.528 150.394 457.471 151.316C457.457 151.529 457.443 151.741 457.415 151.954C457.4 152.068 457.386 152.181 457.372 152.294C457.358 152.408 457.4 152.493 457.372 152.266C457.386 152.337 457.344 152.422 457.344 152.493C457.273 152.933 457.188 153.358 457.06 153.784C457.003 153.996 456.932 154.195 456.861 154.408C456.833 154.493 456.776 154.592 456.762 154.677C456.819 154.464 456.819 154.564 456.79 154.62C456.762 154.691 456.734 154.748 456.705 154.819C456.507 155.23 456.28 155.613 456.01 155.982C455.94 156.067 455.883 156.166 455.812 156.252C455.826 156.223 455.954 156.067 455.84 156.209C455.812 156.252 455.784 156.294 455.741 156.322C455.599 156.507 455.443 156.691 455.287 156.876C454.989 157.216 454.663 157.556 454.337 157.883C453.982 158.237 453.613 158.563 453.231 158.89C453.032 159.06 452.833 159.23 452.621 159.386C452.578 159.429 452.521 159.471 452.479 159.499C452.45 159.514 452.28 159.655 452.408 159.556C452.55 159.457 452.351 159.599 452.337 159.613C452.28 159.655 452.209 159.698 452.153 159.755C451.302 160.379 450.422 160.96 449.529 161.513C449.146 161.755 448.891 162.265 449.047 162.719C449.188 163.144 449.6 163.527 450.068 163.499C450.961 163.442 451.855 163.4 452.763 163.442C453.358 163.471 453.954 163.527 454.535 163.598C454.862 163.627 455.174 163.655 455.5 163.683C455.599 163.683 455.698 163.698 455.798 163.712C455.826 163.712 455.84 163.712 455.869 163.726C455.982 163.74 455.954 163.74 455.783 163.712C455.812 163.726 455.883 163.726 455.911 163.726C456.138 163.769 456.365 163.811 456.592 163.882C456.791 163.939 456.989 164.01 457.173 164.081C457.23 164.095 457.273 164.123 457.329 164.137C457.471 164.194 457.074 164.024 457.287 164.123C457.4 164.18 457.5 164.222 457.613 164.279C458.01 164.478 458.379 164.705 458.734 164.96C458.776 164.988 458.819 165.031 458.861 165.059C459.017 165.173 458.819 165.031 458.805 165.017C458.847 165.088 459.003 165.173 459.06 165.229C459.244 165.385 459.414 165.541 459.585 165.697C459.911 166.009 460.237 166.35 460.521 166.69C460.663 166.86 460.804 167.031 460.932 167.201C461.088 167.399 460.79 167.002 460.932 167.201C460.96 167.243 460.989 167.272 461.017 167.314C461.102 167.428 461.187 167.541 461.258 167.655C461.528 168.038 461.783 168.421 462.024 168.818C462.549 169.683 463.031 170.591 463.471 171.498C463.712 171.995 463.953 172.505 464.18 173.002C464.237 173.115 464.279 173.229 464.336 173.342C464.364 173.399 464.393 173.47 464.421 173.526C464.492 173.711 464.421 173.541 464.407 173.498C464.534 173.782 464.634 174.065 464.747 174.349C465.669 176.675 466.378 179.072 466.875 181.526C466.974 182.05 467.555 182.348 468.038 182.292C468.605 182.221 468.903 181.781 468.96 181.242C469.456 176.973 468.378 172.732 468.633 168.449C468.648 168.109 468.69 167.768 468.718 167.442C468.733 167.357 468.747 167.272 468.747 167.187C468.761 167.045 468.704 167.484 468.733 167.272C468.733 167.229 468.747 167.201 468.747 167.158C468.775 166.974 468.804 166.79 468.832 166.605C468.96 165.882 469.13 165.158 469.328 164.463C469.442 164.095 469.555 163.726 469.683 163.357C469.74 163.187 469.796 163.031 469.867 162.875C469.896 162.79 469.938 162.705 469.967 162.62C470.037 162.464 469.938 162.691 469.924 162.705C469.952 162.648 469.967 162.591 469.995 162.535C470.293 161.868 470.633 161.216 471.044 160.606C471.144 160.45 471.257 160.294 471.371 160.138C471.385 160.109 471.512 159.953 471.385 160.109C471.271 160.265 471.399 160.095 471.427 160.067C471.484 159.996 471.541 159.925 471.612 159.854C471.853 159.57 472.122 159.301 472.406 159.06C472.477 158.989 472.562 158.932 472.633 158.875C472.732 158.79 472.434 159.017 472.548 158.946C472.59 158.918 472.633 158.89 472.676 158.847C472.832 158.748 472.973 158.648 473.144 158.549C473.3 158.464 473.456 158.379 473.612 158.308C473.64 158.294 473.81 158.223 473.626 158.294C473.456 158.365 473.597 158.308 473.64 158.294C473.739 158.251 473.839 158.223 473.938 158.195C474.363 158.053 474.746 157.641 474.718 157.173C474.689 156.691 474.406 156.308 473.938 156.152C472.122 155.542 470.222 155.287 468.392 154.706C468.18 154.635 467.967 154.564 467.754 154.479C467.711 154.464 467.669 154.45 467.626 154.436C467.598 154.422 467.414 154.323 467.57 154.408C467.726 154.493 467.541 154.394 467.513 154.379C467.456 154.351 467.385 154.323 467.329 154.294C466.917 154.11 466.534 153.883 466.165 153.628C466.109 153.585 466.052 153.543 465.995 153.514C465.868 153.429 466.024 153.557 466.052 153.557C466.01 153.571 465.825 153.372 465.783 153.33C465.598 153.16 465.414 152.989 465.244 152.805C465.102 152.649 464.96 152.479 464.818 152.309C464.747 152.224 464.676 152.138 464.605 152.053C464.79 152.266 464.676 152.138 464.634 152.082C464.591 152.025 464.549 151.954 464.492 151.897C463.981 151.202 463.556 150.465 463.173 149.699C463.074 149.5 462.988 149.316 462.903 149.117C462.861 149.032 462.818 148.947 462.79 148.848C462.762 148.805 462.747 148.749 462.719 148.706C462.634 148.508 462.804 148.905 462.719 148.72C462.549 148.309 462.393 147.884 462.237 147.472C461.599 145.713 461.102 143.898 460.549 142.111C459.783 139.7 458.89 137.331 457.727 135.09C457.471 134.594 456.734 134.41 456.266 134.707C455.755 135.034 455.613 135.629 455.883 136.168C456.166 136.707 456.436 137.26 456.691 137.814C456.805 138.069 456.932 138.324 457.032 138.579C457.017 138.551 456.947 138.367 457.017 138.551C457.046 138.608 457.074 138.679 457.103 138.735C457.159 138.877 457.216 139.019 457.273 139.147C457.67 140.14 458.024 141.147 458.351 142.168C458.946 143.997 459.457 145.855 460.081 147.671C460.677 149.401 461.4 151.117 462.435 152.635C462.989 153.443 463.613 154.266 464.378 154.89C465.201 155.585 466.109 156.081 467.116 156.464C469.13 157.244 471.314 157.471 473.356 158.152C473.356 157.471 473.356 156.79 473.356 156.095C470.264 157.088 468.492 160.166 467.513 163.059C467.002 164.549 466.69 166.109 466.534 167.669C466.336 169.683 466.478 171.725 466.648 173.739C466.846 176.221 467.087 178.703 466.804 181.185C467.499 181.086 468.194 181.001 468.889 180.902C468.435 178.675 467.797 176.477 467.002 174.349C466.194 172.207 465.244 170.094 464.095 168.109C463.116 166.435 461.939 164.804 460.436 163.57C459.613 162.903 458.762 162.364 457.769 161.981C456.89 161.627 455.968 161.528 455.032 161.442C454.351 161.386 453.684 161.301 453.004 161.258C451.997 161.201 451.004 161.244 449.997 161.301C450.181 161.967 450.351 162.62 450.536 163.286C452.209 162.251 453.84 161.116 455.301 159.769C456.748 158.422 458.095 156.876 458.819 155.018C459.514 153.231 459.627 151.231 459.585 149.316C459.542 147.146 459.372 144.976 459.116 142.834C458.819 140.31 458.393 137.785 457.84 135.303C457.712 134.764 457.06 134.395 456.535 134.566C456.039 134.807 455.727 135.346 455.869 135.927Z" fill="#AC725D"/>
<path d="M511.665 164.492C511.863 165.272 512.019 166.052 512.133 166.86C512.119 166.761 512.104 166.676 512.09 166.577C512.303 168.151 512.331 169.768 512.119 171.342C512.133 171.243 512.147 171.158 512.161 171.059C511.991 172.335 511.665 173.583 511.168 174.76C511.211 174.675 511.239 174.59 511.282 174.505C511.041 175.072 510.771 175.626 510.445 176.15C510.289 176.42 510.105 176.689 509.92 176.945C509.835 177.058 509.75 177.172 509.665 177.285C509.892 176.987 509.708 177.228 509.651 177.299C509.594 177.37 509.537 177.441 509.481 177.498C509.083 177.98 508.63 178.42 508.162 178.831C508.048 178.93 507.92 179.029 507.807 179.129C507.736 179.186 507.495 179.37 507.793 179.143C507.722 179.185 507.665 179.242 507.594 179.299C507.325 179.498 507.041 179.682 506.757 179.866C506.219 180.192 505.68 180.476 505.098 180.717C505.183 180.675 505.268 180.646 505.353 180.604C504.942 180.774 504.531 180.944 504.119 181.129C503.836 181.256 503.566 181.37 503.354 181.582C502.871 182.036 502.956 182.816 503.453 183.199C503.708 183.398 504.049 183.455 504.346 183.54C504.857 183.696 505.368 183.88 505.864 184.093C505.779 184.05 505.694 184.022 505.609 183.979C506.956 184.561 508.261 185.284 509.424 186.164C509.452 186.192 509.481 186.206 509.509 186.234C509.268 186.05 509.367 186.135 509.424 186.164C509.495 186.22 509.552 186.263 509.622 186.32C509.75 186.419 509.878 186.532 509.991 186.632C510.204 186.83 510.417 187.029 510.615 187.256C510.715 187.355 510.8 187.468 510.899 187.582C510.941 187.639 510.984 187.695 511.027 187.752C511.069 187.809 511.14 187.908 510.941 187.653C510.97 187.695 510.998 187.724 511.027 187.766C511.197 187.993 511.367 188.234 511.509 188.49C511.878 189.071 512.175 189.695 512.459 190.333C512.416 190.248 512.388 190.163 512.346 190.078C513.367 192.518 513.835 195.141 514.289 197.737C514.402 198.432 514.53 199.127 514.657 199.822C514.7 200.063 514.941 200.347 515.14 200.46C515.352 200.574 515.579 200.616 515.82 200.588C516.345 200.517 516.728 200.077 516.742 199.538C516.785 198.361 516.827 197.184 516.87 195.992C516.913 194.858 516.913 193.709 517.069 192.574C517.054 192.674 517.04 192.759 517.026 192.858C517.168 191.879 517.381 190.901 517.636 189.95C517.763 189.482 517.905 189.014 518.047 188.546C518.175 188.163 518.288 187.766 518.444 187.383C518.402 187.468 518.373 187.554 518.331 187.639C518.529 187.185 518.785 186.759 519.083 186.362C519.125 186.305 519.168 186.249 519.21 186.178C519.309 186.05 519.026 186.405 519.182 186.206C519.281 186.078 519.38 185.965 519.48 185.837C519.664 185.61 519.863 185.398 520.061 185.185C520.487 184.745 520.941 184.32 521.409 183.908C521.522 183.809 521.635 183.724 521.749 183.625C521.806 183.582 521.862 183.54 521.919 183.483C521.948 183.455 521.976 183.426 522.018 183.412C521.976 183.44 521.806 183.582 521.933 183.469C522.16 183.299 522.401 183.128 522.628 182.958C523.096 182.646 523.579 182.348 524.103 182.136C524.018 182.178 523.933 182.206 523.848 182.249C523.891 182.235 523.933 182.221 523.976 182.192C524.231 182.093 524.472 181.951 524.614 181.71C524.727 181.497 524.77 181.27 524.742 181.029C524.671 180.505 524.231 180.107 523.692 180.107C523.451 180.107 523.21 180.093 522.983 180.065C523.082 180.079 523.167 180.093 523.267 180.107C522.799 180.036 522.33 179.909 521.891 179.724C521.976 179.767 522.061 179.795 522.146 179.838C521.877 179.724 521.621 179.597 521.38 179.441C521.253 179.37 521.139 179.285 521.011 179.214C520.955 179.171 520.884 179.129 520.827 179.086C520.799 179.072 520.77 179.044 520.742 179.029C520.728 179.015 520.714 179.001 520.699 179.001C520.6 178.916 520.841 179.115 520.827 179.1C520.345 178.703 519.891 178.278 519.465 177.81C519.366 177.682 519.253 177.569 519.153 177.441C519.111 177.384 519.054 177.313 519.012 177.257C518.898 177.115 519.125 177.398 519.083 177.342C519.054 177.299 519.026 177.271 518.997 177.228C518.785 176.959 518.6 176.675 518.402 176.391C518.005 175.796 517.65 175.172 517.324 174.533C516.941 173.796 516.586 173.03 516.26 172.264C516.303 172.349 516.331 172.434 516.374 172.519C515.423 170.264 514.686 167.91 514.076 165.527C513.934 164.974 513.806 164.435 513.679 163.882C513.551 163.343 512.899 162.974 512.374 163.144C511.835 163.371 511.523 163.91 511.665 164.492C511.963 165.783 512.289 167.073 512.672 168.35C513.111 169.839 513.622 171.328 514.204 172.775C514.828 174.292 515.523 175.796 516.402 177.186C517.182 178.434 518.118 179.654 519.267 180.575C519.82 181.015 520.402 181.426 521.054 181.71C521.777 182.022 522.486 182.221 523.281 182.292C523.437 182.306 523.593 182.306 523.735 182.306C523.635 181.611 523.55 180.916 523.451 180.221C522.288 180.675 521.281 181.384 520.316 182.164C519.352 182.944 518.444 183.823 517.678 184.802C517.296 185.284 516.941 185.766 516.657 186.32C516.331 186.972 516.118 187.681 515.906 188.376C515.395 190.064 514.984 191.78 514.856 193.539C514.785 194.532 514.771 195.539 514.743 196.531C514.714 197.553 514.672 198.56 514.643 199.581C515.338 199.481 516.033 199.396 516.728 199.297C516.218 196.475 515.835 193.61 514.927 190.887C514.459 189.511 513.877 188.135 513.026 186.944C512.601 186.334 512.119 185.766 511.58 185.256C510.956 184.689 510.261 184.178 509.552 183.724C508.771 183.213 507.949 182.76 507.098 182.377C506.616 182.15 506.119 181.951 505.609 181.767C505.197 181.625 504.786 181.512 504.375 181.384C504.46 181.426 504.545 181.455 504.63 181.497C504.758 181.625 504.871 181.738 504.999 181.866C505.041 181.951 505.07 182.036 505.112 182.121C505.126 182.221 505.141 182.306 505.155 182.405C505.141 182.504 505.126 182.589 505.112 182.689C505.07 182.774 505.041 182.859 504.999 182.944C504.914 183.072 504.8 183.228 504.673 183.284C504.701 183.27 504.715 183.256 504.743 183.242C504.814 183.199 504.885 183.171 504.956 183.128C505.155 183.029 505.368 182.944 505.58 182.859C505.495 182.901 505.41 182.93 505.325 182.972C505.906 182.731 506.502 182.49 507.069 182.192C507.722 181.852 508.332 181.455 508.913 181.015C510.147 180.065 511.211 178.944 512.048 177.64C513.665 175.158 514.374 172.151 514.388 169.215C514.388 167.456 514.147 165.683 513.721 163.981C513.579 163.442 512.955 163.059 512.417 163.244C511.849 163.371 511.509 163.91 511.665 164.492Z" fill="#AC725D"/>
<path d="M526.032 126.864C526.146 127.389 526.245 127.914 526.33 128.439C526.373 128.694 526.415 128.963 526.458 129.233C526.472 129.318 526.543 129.715 526.486 129.403C526.515 129.559 526.529 129.715 526.543 129.857C526.671 130.935 526.77 132.027 526.827 133.119C526.94 135.317 526.926 137.53 526.77 139.714C526.727 140.253 526.685 140.792 526.642 141.345C526.614 141.586 526.6 141.842 526.571 142.083C526.557 142.196 526.543 142.31 526.529 142.437C526.529 142.494 526.515 142.551 526.515 142.593C526.5 142.678 526.515 142.636 526.529 142.466C526.529 142.508 526.515 142.551 526.515 142.593C526.387 143.501 526.188 144.394 525.947 145.274C525.82 145.714 525.678 146.153 525.522 146.579C525.437 146.791 525.366 147.004 525.281 147.217C525.266 147.274 525.238 147.316 525.224 147.373C525.309 147.103 525.267 147.259 525.238 147.33C525.181 147.444 525.139 147.571 525.082 147.685C524.699 148.522 524.26 149.316 523.735 150.082C523.593 150.295 523.437 150.507 523.281 150.706C523.238 150.763 523.153 150.834 523.323 150.649C523.281 150.706 523.224 150.763 523.182 150.819C523.097 150.919 523.026 151.018 522.94 151.117C522.614 151.5 522.274 151.855 521.905 152.209C521.721 152.38 521.536 152.55 521.338 152.72C521.239 152.805 521.125 152.876 521.04 152.961C521.224 152.777 521.153 152.876 521.083 152.933C521.026 152.975 520.969 153.018 520.898 153.06C520.487 153.358 520.047 153.642 519.593 153.883C519.196 154.096 518.969 154.649 519.111 155.089C519.168 155.259 519.253 155.429 519.381 155.557C519.537 155.727 519.891 155.897 520.132 155.869C521.083 155.755 522.033 155.698 522.983 155.727C523.451 155.741 523.905 155.769 524.373 155.812C524.486 155.826 524.614 155.84 524.728 155.854C524.813 155.869 525.238 155.925 524.869 155.869C525.11 155.911 525.352 155.939 525.593 155.982C526.515 156.138 527.436 156.365 528.33 156.649C528.784 156.79 529.238 156.946 529.677 157.131C529.777 157.173 529.862 157.202 529.961 157.244C530.018 157.273 530.075 157.287 530.131 157.315C529.833 157.202 530.032 157.273 530.103 157.301C530.33 157.4 530.543 157.5 530.77 157.599C531.635 158.01 532.472 158.464 533.266 158.975C533.663 159.23 534.046 159.485 534.415 159.769C534.514 159.84 534.613 159.911 534.712 159.982C534.755 160.024 534.812 160.053 534.854 160.095C534.627 159.925 534.727 159.996 534.783 160.038C534.996 160.209 535.195 160.365 535.393 160.535C536.102 161.13 536.783 161.783 537.407 162.464C537.733 162.818 538.045 163.187 538.357 163.57C538.414 163.655 538.485 163.726 538.542 163.811C538.315 163.542 538.584 163.868 538.627 163.939C538.769 164.137 538.911 164.336 539.052 164.534C539.648 165.4 540.187 166.307 540.641 167.243C540.754 167.484 540.868 167.726 540.967 167.953C541.052 168.151 540.868 167.711 540.953 167.924C540.981 167.995 541.01 168.08 541.038 168.151C541.081 168.265 541.123 168.378 541.166 168.491C541.364 169.002 541.534 169.527 541.676 170.052C541.832 170.591 542.442 170.974 542.981 170.789C543.236 170.704 543.492 170.548 543.619 170.307C543.761 170.037 543.775 169.782 543.733 169.484C543.733 169.47 543.69 169.201 543.719 169.371C543.747 169.541 543.705 169.286 543.705 169.272C543.69 169.172 543.676 169.073 543.662 168.974C543.634 168.747 543.605 168.52 543.591 168.293C543.563 167.938 543.534 167.584 543.52 167.229C543.506 166.676 543.52 166.109 543.506 165.556C543.506 164.861 543.463 164.18 543.392 163.485C543.336 162.96 543.265 162.435 543.194 161.911C543.151 161.599 543.109 161.287 543.066 160.96C543.052 160.904 543.052 160.847 543.038 160.79C542.995 160.521 543.066 160.96 543.038 160.79C543.024 160.634 542.995 160.492 542.981 160.336C542.854 159.329 542.74 158.308 542.712 157.287C542.698 156.762 542.697 156.252 542.74 155.727C542.754 155.486 542.768 155.23 542.811 154.989C542.754 155.287 542.839 154.847 542.839 154.791C542.868 154.649 542.882 154.521 542.91 154.379C542.995 153.94 543.123 153.514 543.265 153.103C543.322 152.919 543.392 152.734 543.463 152.55C543.492 152.465 543.52 152.38 543.563 152.309C543.577 152.252 543.605 152.209 543.619 152.153C543.719 151.926 543.577 152.266 543.619 152.167C543.96 151.415 544.343 150.692 544.797 150.011C544.924 149.827 545.109 149.628 545.222 149.429C545.208 149.444 545.066 149.628 545.18 149.486C545.222 149.429 545.265 149.387 545.307 149.33C545.378 149.245 545.449 149.16 545.52 149.075C545.818 148.735 546.13 148.408 546.47 148.096C546.64 147.94 546.825 147.784 547.009 147.628C547.151 147.515 546.967 147.671 546.952 147.671C547.009 147.642 547.052 147.586 547.108 147.557C547.208 147.486 547.307 147.415 547.392 147.345C547.775 147.075 548.172 146.848 548.598 146.635C548.995 146.437 549.222 145.855 549.08 145.43C548.924 144.962 548.541 144.678 548.059 144.65C547.562 144.621 547.066 144.579 546.569 144.522C546.456 144.508 546.343 144.494 546.229 144.48C546.172 144.48 546.116 144.451 546.059 144.451C546.342 144.437 546.158 144.465 546.073 144.451C545.818 144.409 545.562 144.38 545.321 144.338C544.357 144.168 543.407 143.955 542.485 143.685C542.017 143.544 541.563 143.402 541.109 143.231C540.896 143.146 540.683 143.075 540.457 142.99C540.428 142.976 540.13 142.863 540.13 142.863C540.173 142.877 540.215 142.905 540.258 142.919C540.215 142.905 540.173 142.877 540.13 142.863C540.074 142.834 540.003 142.806 539.946 142.778C539.052 142.38 538.201 141.927 537.379 141.402C536.968 141.132 536.556 140.863 536.173 140.565C536.131 140.537 536.102 140.508 536.06 140.48C536.301 140.65 536.102 140.523 536.06 140.48C535.975 140.409 535.875 140.338 535.79 140.267C535.592 140.111 535.407 139.941 535.223 139.771C534.868 139.445 534.514 139.104 534.188 138.75C533.847 138.381 533.549 137.984 533.223 137.615C533.422 137.842 533.181 137.558 533.138 137.487C533.067 137.388 532.996 137.303 532.925 137.204C532.769 136.991 532.628 136.778 532.486 136.565C532.202 136.14 531.947 135.7 531.691 135.261C531.195 134.381 530.755 133.474 530.344 132.537C530.33 132.495 530.302 132.452 530.287 132.41C530.273 132.367 530.245 132.325 530.231 132.282C530.287 132.424 530.301 132.438 530.259 132.339C530.202 132.211 530.146 132.069 530.089 131.942C529.989 131.686 529.89 131.431 529.791 131.176C529.592 130.651 529.394 130.112 529.209 129.587C528.826 128.495 528.472 127.403 528.117 126.311C527.947 125.786 527.366 125.389 526.812 125.574C526.245 125.73 525.848 126.297 526.032 126.864C527.309 130.85 528.642 134.963 531.124 138.381C532.386 140.125 533.904 141.629 535.691 142.863C537.379 144.026 539.265 144.905 541.208 145.543C543.421 146.267 545.733 146.664 548.059 146.791C547.874 146.125 547.704 145.472 547.52 144.806C544.3 146.408 542.059 149.6 541.081 153.018C540.485 155.103 540.513 157.273 540.754 159.4C540.825 159.996 540.896 160.577 540.981 161.173C540.996 161.315 541.024 161.443 541.038 161.584C541.052 161.641 541.052 161.698 541.066 161.755C541.109 162.024 541.038 161.584 541.066 161.769C541.109 162.038 541.137 162.322 541.18 162.591C541.279 163.428 541.378 164.265 541.393 165.102C541.407 165.74 541.393 166.378 541.407 167.016C541.435 168.023 541.549 169.03 541.69 170.037C542.371 169.853 543.052 169.655 543.747 169.47C542.655 165.612 540.386 162.123 537.407 159.471C534.429 156.805 530.741 154.862 526.827 154.053C524.642 153.599 522.373 153.457 520.161 153.741C520.345 154.408 520.515 155.06 520.7 155.727C524.189 153.812 526.543 150.366 527.777 146.65C528.415 144.721 528.699 142.721 528.855 140.693C529.039 138.452 529.096 136.211 529.011 133.97C528.912 131.403 528.642 128.836 528.117 126.325C528.004 125.786 527.337 125.418 526.812 125.588C526.203 125.744 525.919 126.283 526.032 126.864Z" fill="#AC725D"/>
<path fill-rule="evenodd" clip-rule="evenodd" d="M393.336 419C462.325 419 525 452.391 525 499.602C525 539.544 451.702 548 393.336 548C328.454 548 243 544.003 243 499.602C243 448.563 318.753 419 393.336 419Z" fill="url(#paint1_linear_21_3126)"/>
<path d="M228.372 242.416C228.372 242.416 258.334 386.255 236.313 417.516C236.313 417.516 375.711 436.838 456.412 349.895C456.412 349.895 431.122 336.586 397.713 212.58L228.372 242.416Z" fill="#F68119"/>
<path d="M207.44 299.155C216.64 321.281 236.045 314.494 236.045 314.494C242.166 329.949 260.073 365.229 313.142 365.535C321.01 365.571 329.647 364.847 339.159 363.161C351.303 361.022 362.08 357.703 371.484 353.421C390.915 344.548 404.502 331.432 412.306 315.584C415.817 308.53 418.181 300.927 419.369 292.918C422.08 275.506 419.488 256.15 411.725 236.135C388.467 176.113 329.56 167.074 285.586 180.637C213.531 202.822 232.195 277.468 232.195 277.468C213.12 269.822 201.833 285.669 207.44 299.155Z" fill="#FCD9BC"/>
<path d="M419.858 244.217C419.858 244.217 364.362 245.134 285.488 204.94C285.488 204.94 278.799 265.905 232.192 277.466C232.192 277.466 203.75 207.032 270.7 173.675C278.521 169.788 286.065 166.687 293.351 164.315C359.404 142.668 403.211 180.15 416.118 224.021C418.106 230.669 419.343 237.462 419.858 244.217Z" fill="#F68119"/>
<path d="M362.398 351.508C362.398 351.508 438.424 366.253 439.667 380.761C441.593 403.175 394.476 385.201 394.476 385.201C394.476 385.201 486.731 454.465 473.589 479.5C460.449 504.536 389.088 443.636 389.088 443.636L369.399 447.253C369.399 447.253 400.993 515.366 380.387 521.213C359.78 527.055 327.053 489.61 308.522 408.804C308.522 408.804 267.723 443.715 258.455 428.596C249.188 413.477 267.089 394.341 326.303 357.081L362.398 351.508Z" fill="#FCD9BC"/>
<path d="M361.791 296.333C361.686 298.557 361.201 300.756 360.522 302.897C359.825 305.034 358.879 307.113 357.609 309.034C356.334 310.938 354.744 312.704 352.801 314.052C350.859 315.396 348.606 316.336 346.268 316.704C343.946 317.095 341.416 316.973 339.182 316.018C336.915 315.14 335.058 313.528 333.618 311.733C332.178 309.923 331.122 307.881 330.327 305.784C329.545 303.681 328.983 301.51 328.744 299.305C330.162 303.466 332.105 307.487 334.956 310.579C336.398 312.086 338.073 313.336 339.958 313.986C340.894 314.326 341.875 314.507 342.869 314.561C343.856 314.646 344.867 314.543 345.867 314.377C349.908 313.678 353.446 311.233 355.994 307.874C358.588 304.536 360.426 300.532 361.791 296.333Z" fill="#A3884E"/>
<path d="M380.062 282.955C382.451 290.715 390.678 295.07 398.436 292.678C406.195 290.289 410.548 282.064 408.161 274.303C405.772 266.544 397.544 262.191 389.785 264.58C382.026 266.969 377.673 275.196 380.062 282.955Z" fill="#996B1E"/>
<path d="M385.071 281.724C386.535 286.483 391.58 289.172 396.362 287.699C398.194 287.137 399.703 286.05 400.794 284.652C399.803 285.626 398.581 286.37 397.17 286.804C392.411 288.272 387.37 285.603 385.904 280.844C384.99 277.876 385.676 274.782 387.49 272.519C385.082 274.803 384.026 278.333 385.071 281.724Z" fill="#4C3D27"/>
<path d="M389.529 273.704C393.67 275.329 397.386 277.771 400.542 280.91C401.966 282.325 399.859 284.624 398.431 283.207C395.446 280.237 391.986 277.998 388.069 276.461C386.199 275.728 387.676 272.978 389.529 273.704Z" fill="#FCD9BC"/>
<path d="M389.184 283.212C390.809 279.07 393.253 275.352 396.388 272.196C397.807 270.775 400.106 272.884 398.69 274.309C395.719 277.295 393.48 280.752 391.941 284.671C391.21 286.539 388.458 285.064 389.184 283.212Z" fill="#FCD9BC"/>
<path d="M272.121 302.854C274.51 310.614 282.737 314.967 290.497 312.578C298.256 310.188 302.609 301.961 300.222 294.202C297.831 286.443 289.603 282.09 281.844 284.477C274.085 286.868 269.732 295.095 272.121 302.854Z" fill="#996B1E"/>
<path d="M277.13 301.624C278.594 306.38 283.642 309.071 288.422 307.598C290.253 307.034 291.764 305.947 292.854 304.551C291.862 305.523 290.64 306.271 289.23 306.705C284.471 308.169 279.43 305.502 277.966 300.743C277.051 297.775 277.735 294.683 279.551 292.416C277.143 294.704 276.085 298.232 277.13 301.624Z" fill="#4C3D27"/>
<path d="M281.588 293.601C285.729 295.228 289.448 297.67 292.602 300.807C294.025 302.222 291.918 304.523 290.49 303.104C287.505 300.138 284.045 297.897 280.128 296.36C278.259 295.625 279.737 292.875 281.588 293.601Z" fill="#FCD9BC"/>
<path d="M281.246 303.111C282.868 298.97 285.312 295.251 288.45 292.097C289.866 290.674 292.166 292.781 290.747 294.208C287.779 297.194 285.539 300.653 284.003 304.57C283.27 306.44 280.517 304.961 281.246 303.111Z" fill="#FCD9BC"/>
<path d="M314.633 364.539L313.428 364.488L309.748 364.112C307.287 363.937 304.87 363.394 302.434 363.013L298.826 362.171C298.228 362.024 297.623 361.9 297.027 361.738L295.251 361.208C290.497 359.87 285.892 358.007 281.481 355.784C272.664 351.303 264.744 345.102 258.19 337.727C251.666 330.346 246.273 321.89 242.888 312.663C244.766 317.195 247.16 321.495 249.859 325.572C252.523 329.675 255.554 333.53 258.872 337.11C265.499 344.266 273.288 350.382 282.026 354.714C286.357 356.93 290.881 358.806 295.565 360.159L297.311 360.695C297.897 360.862 298.495 360.988 299.085 361.137L302.643 361.994L306.246 362.642C306.844 362.748 307.443 362.872 308.047 362.966L309.862 363.193C311.83 363.452 313.804 363.65 315.783 363.793C315.401 364.041 315.012 364.293 314.633 364.539Z" fill="#EEC398"/>
<path d="M319.931 364.732C318.993 364.732 318.057 364.71 317.121 364.646L314.633 364.539C315.012 364.293 315.401 364.041 315.783 363.793C318.48 363.988 321.185 364.08 323.893 364.08C328.983 364.08 334.082 363.753 339.15 363.161C339.146 363.163 339.146 363.163 339.144 363.163C336.721 363.499 334.295 363.87 331.859 364.146C329.41 364.311 326.961 364.608 324.504 364.663C322.98 364.676 321.455 364.732 319.931 364.732Z" fill="#EEC398"/>
<path d="M258.456 428.596C258.152 426.902 258.377 425.134 258.815 423.472C259.251 421.796 259.845 420.159 260.603 418.604L261.155 417.426C261.351 417.042 261.586 416.678 261.8 416.302L263.116 414.063C264.086 412.635 265.087 411.223 266.104 409.823C270.32 404.323 275.436 399.634 280.59 395.07L284.605 391.815C285.278 391.279 285.934 390.717 286.623 390.2L288.704 388.672C291.499 386.661 294.198 384.517 297.123 382.701L301.442 379.872C302.872 378.919 304.319 377.987 305.806 377.126C308.774 375.391 311.719 373.619 314.704 371.92C309.003 375.762 303.212 379.442 297.649 383.462C292.046 387.409 286.584 391.554 281.366 395.984C276.188 400.44 271.134 405.092 266.826 410.394C265.781 411.74 264.751 413.101 263.747 414.479L262.383 416.64C262.161 417.005 261.917 417.356 261.712 417.73L261.131 418.864C260.302 420.356 259.635 421.931 259.122 423.555L258.772 424.784C258.665 425.196 258.624 425.621 258.543 426.043C258.391 426.88 258.351 427.744 258.456 428.596Z" fill="#EEC398"/>
<path d="M468.063 480.737C467.411 480.737 466.76 480.677 466.104 480.669C465.247 480.628 464.411 480.444 463.56 480.34C462.706 480.244 461.883 480.006 461.056 479.792C460.233 479.564 459.391 479.387 458.579 479.119C456.983 478.523 455.333 478.036 453.775 477.344C447.439 474.743 441.653 471.065 436 467.29C433.246 465.294 430.432 463.368 427.81 461.199C425.156 459.073 422.439 457.025 419.944 454.716L418.49 453.434C418.736 453.269 418.98 453.105 419.221 452.938C419.659 453.297 420.097 453.654 420.538 454.008C423.121 456.201 425.803 458.265 428.481 460.332C431.111 462.466 433.928 464.34 436.682 466.3C438.033 467.321 439.469 468.208 440.89 469.121C442.324 470.014 443.708 470.988 445.181 471.815L449.598 474.284C451.094 475.055 452.63 475.745 454.141 476.5C455.658 477.233 457.259 477.761 458.816 478.403C459.607 478.69 460.423 478.891 461.227 479.139C462.035 479.382 462.838 479.634 463.67 479.763C464.497 479.91 465.313 480.137 466.148 480.218C466.935 480.269 467.723 480.402 468.51 480.402C468.561 480.402 468.612 480.402 468.663 480.399C469.501 480.376 470.348 480.385 471.177 480.218C471.598 480.18 472.006 480.079 472.412 479.958C472.822 479.859 473.215 479.696 473.589 479.5C472.115 480.357 470.365 480.637 468.67 480.716C468.467 480.73 468.264 480.737 468.063 480.737Z" fill="#EEC398"/>
<path d="M380.323 521.213C376.996 521.213 373.771 519.946 370.937 518.221C368.095 516.436 365.559 514.197 363.274 511.757C358.708 506.85 355.011 501.241 351.63 495.504C348.352 489.7 345.386 483.729 342.775 477.611C342.738 477.528 342.704 477.447 342.67 477.365C342.993 477.341 343.317 477.316 343.638 477.292C346.414 483.284 349.341 489.21 352.669 494.903C354.32 497.768 356.039 500.594 357.906 503.318C359.776 506.038 361.802 508.643 363.958 511.133C366.123 513.612 368.54 515.881 371.26 517.728C373.953 519.588 377.055 520.954 380.387 521.213C380.365 521.213 380.344 521.213 380.323 521.213Z" fill="#EEC398"/>
<path d="M434.443 386.721C433.261 386.721 432.077 386.697 430.895 386.676C428.28 386.547 425.664 386.362 423.055 386.084C417.841 385.524 412.665 384.592 407.56 383.385C402.472 382.098 397.423 380.626 392.546 378.69C390.084 377.777 387.695 376.694 385.31 375.613C384.676 375.335 384.056 375.029 383.441 374.713C383.208 374.444 382.977 374.175 382.75 373.907C386.084 375.326 389.433 376.683 392.862 377.822C395.315 378.701 397.805 379.466 400.288 380.235C401.534 380.622 402.801 380.921 404.053 381.271C405.308 381.615 406.569 381.942 407.84 382.216C412.881 383.513 418.018 384.421 423.17 385.169C428.327 385.908 433.522 386.426 438.751 386.577C437.317 386.686 435.881 386.721 434.443 386.721Z" fill="#EEC398"/>
<path d="M449.198 420.491C449.198 420.491 440.351 440.9 412.186 457.395C391.48 469.557 360.321 479.577 314.571 477.803L308.524 408.802C308.524 408.802 326.324 390.039 313.14 365.529C321.004 365.573 329.658 364.847 339.167 363.159C345.813 361.981 352.051 360.464 357.887 358.605C362.695 357.088 367.225 355.357 371.478 353.412C371.478 353.412 374.448 370.529 397.546 387.563L449.198 420.491Z" fill="#3BAA9B"/>
<path d="M362.507 392.99C362.507 392.99 361.751 378.893 371.587 378.848C381.427 378.805 368.364 416.862 368.364 416.862C368.364 416.862 334.336 401.365 339.747 389.847C345.157 378.331 362.507 392.99 362.507 392.99Z" fill="#1F5A52"/>
<path d="M256.977 276.968C260.49 269.084 267.862 264.244 276.28 263.187C283.069 262.334 283.359 272.984 276.596 273.835C271.846 274.431 268.279 277.711 266.39 281.949C263.599 288.221 254.199 283.207 256.977 276.968Z" fill="#F68119"/>
<path d="M409.107 248.004C402.256 242.757 393.465 242.029 385.567 245.123C379.197 247.615 384.028 257.113 390.377 254.628C394.835 252.88 399.536 254.058 403.22 256.878C408.671 261.056 414.531 252.158 409.107 248.004Z" fill="#F68119"/>
<path d="M261.742 332.665C263.68 338.958 270.352 342.488 276.643 340.552C282.936 338.614 286.464 331.94 284.528 325.649C282.592 319.358 275.919 315.828 269.627 317.766C263.336 319.704 259.804 326.374 261.742 332.665Z" fill="#F68BA4"/>
<path d="M403.583 307.498C404.878 311.71 408.297 314.667 412.306 315.584C415.817 308.53 418.181 300.927 419.369 292.918C416.945 291.945 414.17 291.772 411.462 292.604C405.182 294.54 401.647 301.218 403.583 307.498Z" fill="#F68BA4"/>
<path d="M391.031 226.542C343.206 226.542 303.203 199.897 293.352 164.315C306.631 159.962 319.016 158 330.427 158C375.775 158 405.806 188.971 416.119 224.021C408.105 225.666 399.686 226.542 391.031 226.542Z" fill="#F7912C"/>
<path d="M412.187 457.395C392.809 447.546 377.66 433.069 367.997 416.691C368.236 416.802 368.365 416.862 368.365 416.862C368.365 416.862 381.413 378.848 371.604 378.848C371.6 378.848 371.593 378.848 371.587 378.848C361.751 378.893 362.507 392.99 362.507 392.99C362.507 392.99 360.402 391.21 357.428 389.379C355.4 379.092 355.47 368.653 357.887 358.605C362.695 357.088 367.225 355.357 371.478 353.412C371.478 353.412 374.448 370.529 397.546 387.563L449.198 420.491C449.198 420.491 441.847 437.445 419.221 452.938C418.98 453.105 418.736 453.269 418.491 453.434C416.507 454.771 414.405 456.097 412.187 457.395Z" fill="#62B69F"/>
<path d="M368.364 416.862C368.364 416.862 368.236 416.802 367.997 416.691C362.86 407.985 359.274 398.745 357.428 389.379C360.402 391.21 362.507 392.99 362.507 392.99C362.507 392.99 361.751 378.893 371.587 378.848C371.593 378.848 371.6 378.848 371.604 378.848C381.413 378.848 368.364 416.862 368.364 416.862Z" fill="#497767"/>
<path fill-rule="evenodd" clip-rule="evenodd" d="M313.902 498.86C319.096 490.512 331.487 494.617 338.291 499.68C342.318 502.654 348.836 511.028 354.309 511.553C355.791 511.69 359.305 510.575 359.976 510.926C360.119 510.992 345.149 523.72 334.147 515.775C324.769 509.005 329.73 501.284 313.902 498.86Z" fill="#A0A653"/>
<path fill-rule="evenodd" clip-rule="evenodd" d="M253.03 487.055C248.278 475.075 231.266 474.228 222.65 479.289C217.561 482.288 208.779 491.751 202.381 491.221C200.651 491.091 196.756 488.876 195.939 489.155C195.749 489.232 200.841 501.132 215.827 496.268C229.012 491.987 224.25 486.518 243.889 486.467C244.661 486.462 253.063 487.168 253.03 487.055Z" fill="#C8CF6A"/>
<path fill-rule="evenodd" clip-rule="evenodd" d="M253.03 487.055C245.791 480.534 234.988 487.743 229.806 494.345C226.737 498.256 222.734 507.934 217.601 509.899C216.215 510.425 212.54 510.309 211.988 510.806C211.87 510.922 229.653 518.962 238.096 508.504C245.288 499.563 238.46 493.589 253.03 487.055Z" fill="#A0A653"/>
<path fill-rule="evenodd" clip-rule="evenodd" d="M336.967 463.996C332.014 469.828 322.303 479.352 313.805 484.413C317.817 484.919 324.494 485.275 330.081 483.081C330.13 483.074 330.191 483.032 330.271 483.003C331.008 481.409 334.005 475.393 338.436 473.324C344.189 470.636 352.103 471.577 351.824 473.327C349.669 486.928 333.939 485.636 330.666 484.041C324.157 486.362 316.651 487.78 312.169 485.327C308.482 487.31 305.111 488.294 302.599 487.599C302.545 487.573 305.942 486.402 310.527 484.126C310.432 484.039 310.336 483.951 310.254 483.845C310.234 483.831 310.46 483.884 310.889 483.959C313.825 482.481 317.221 480.588 320.491 478.259C318.72 475.751 319.14 471.617 320.394 467.551C319.115 463.381 319.197 448.858 332.307 447.44C334.077 447.263 334.617 455.209 331.648 460.819C329.011 465.796 321.23 468.628 321.166 468.652C321.133 468.657 321.1 468.662 321.083 468.664C320.381 472.452 320.716 476.231 320.919 477.948C322.673 476.684 324.395 475.288 325.982 473.779C326.696 473.111 332.678 466.717 336.425 462.979C336.103 460.642 337.754 454.962 341.173 451.27C345.016 447.134 351.617 446.091 351.667 446.084C353.407 445.93 352.584 466.41 337.109 464.044C337.056 464.034 337.005 464.025 336.967 463.996Z" fill="#90963F"/>
<path fill-rule="evenodd" clip-rule="evenodd" d="M350.686 448.232C351.097 450.24 345.494 456.833 343.889 458.211C341.415 460.347 341.29 460.784 338.295 462.186C337.876 461.941 341.491 459.313 344.882 455.676C347.865 452.48 350.664 448.186 350.686 448.232Z" fill="#A0A653"/>
<path fill-rule="evenodd" clip-rule="evenodd" d="M331.772 482.697C333.556 483.709 342.404 479.12 344.215 478.015C346.983 476.308 347.456 476.328 349.687 473.889C349.591 473.433 345.993 476.059 341.487 478.188C337.549 480.056 331.735 482.668 331.772 482.697Z" fill="#A0A653"/>
<path fill-rule="evenodd" clip-rule="evenodd" d="M321.962 467C321.04 465.181 326.044 456.556 327.248 454.814C329.092 452.127 329.095 451.657 331.64 449.545C332.109 449.665 329.297 453.123 326.934 457.524C324.877 461.365 321.968 467.049 321.962 467Z" fill="#A0A653"/>
<path fill-rule="evenodd" clip-rule="evenodd" d="M286.764 507.379C301.888 500.231 299.292 474.666 287.813 465.121C270.878 451.061 257.126 464.63 258.127 431.188C259.203 395.589 244.166 396.902 236.96 379.891C240.929 389.227 245.652 393.678 248.933 398.26C255.286 407.118 258.458 413.593 255.849 436.82C254.395 449.789 261.21 456.031 271.318 460.11C273.737 461.103 279.117 461.789 282.915 464.286C288.025 467.643 291.531 473.25 293.259 477.761C295.008 482.302 295.857 489.567 294.182 495.317C293.045 499.25 289.322 504.023 285.941 505.898C285.238 506.28 286.707 506.833 286.764 507.379Z" fill="#90963F"/>
<path fill-rule="evenodd" clip-rule="evenodd" d="M246.434 393.755C251.88 377 229.263 372.361 229.128 374.308C229.124 374.394 229.084 381.914 232.995 386.931C237.394 392.566 245.822 395.652 246.434 393.755Z" fill="#90963F"/>
<path d="M231.331 375.817C233.632 375.703 239.954 383.121 241.192 385.164C243.117 388.306 243.581 388.511 244.594 392.096C244.25 392.512 241.99 388.042 238.543 383.601C235.543 379.717 231.28 375.808 231.331 375.817V375.817Z" stroke="#A0A653" stroke-width="0.302363" stroke-miterlimit="10"/>
<path fill-rule="evenodd" clip-rule="evenodd" d="M257.259 421.342C255.302 403.826 232.785 408.938 233.457 410.775C233.483 410.839 236.56 417.714 242.184 420.665C248.514 423.987 257.482 423.325 257.259 421.342Z" fill="#90963F"/>
<path d="M236.085 411.219C238.14 410.182 246.967 414.336 248.93 415.676C251.966 417.742 252.485 417.737 254.891 420.594C254.746 421.117 250.838 417.963 245.881 415.341C241.537 413.036 236.038 411.242 236.085 411.219Z" stroke="#A0A653" stroke-width="0.302363" stroke-miterlimit="10"/>
<path fill-rule="evenodd" clip-rule="evenodd" d="M254.879 408.917C243.647 395.33 262.986 382.72 263.832 384.483C263.857 384.546 266.663 391.525 264.868 397.627C262.842 404.484 256.148 410.454 254.879 408.917Z" fill="#90963F"/>
<path d="M262.323 386.686C260.143 387.423 256.998 396.647 256.585 399.003C255.959 402.629 255.608 402.996 255.983 406.702C256.457 406.973 256.908 401.961 258.482 396.578C259.847 391.859 262.369 386.664 262.323 386.686V386.686Z" stroke="#A0A653" stroke-width="0.302363" stroke-miterlimit="10"/>
<path fill-rule="evenodd" clip-rule="evenodd" d="M262.246 452.953C260.304 435.419 237.787 440.531 238.459 442.368C238.485 442.43 241.562 449.305 247.185 452.256C253.514 455.581 262.467 454.919 262.246 452.953Z" fill="#90963F"/>
<path d="M241.089 442.828C243.142 441.773 251.952 445.93 253.931 447.268C256.969 449.35 257.489 449.346 259.879 452.205C259.747 452.71 255.84 449.556 250.865 446.935C246.537 444.628 241.043 442.851 241.089 442.828Z" stroke="#A0A653" stroke-width="0.302363" stroke-miterlimit="10"/>
<path fill-rule="evenodd" clip-rule="evenodd" d="M256.807 437.074C252.523 419.963 275.408 416.915 275.407 418.861C275.416 418.927 274.923 426.445 270.675 431.173C265.904 436.493 257.291 439.004 256.807 437.074Z" fill="#90963F"/>
<path d="M273.109 420.202C270.824 419.928 263.999 426.907 262.622 428.858C260.5 431.852 260.003 432.02 258.761 435.546C259.072 435.974 261.632 431.663 265.368 427.474C268.639 423.803 273.16 420.211 273.109 420.202V420.202Z" stroke="#A0A653" stroke-width="0.302363" stroke-miterlimit="10"/>
<path fill-rule="evenodd" clip-rule="evenodd" d="M276.968 459.718C268.152 449.053 283.349 439.144 284.009 440.529C284.033 440.576 286.229 446.062 284.826 450.853C283.235 456.239 277.973 460.922 276.968 459.718Z" fill="#90963F"/>
<path d="M282.836 442.25C281.122 442.839 278.645 450.076 278.33 451.93C277.831 454.768 277.552 455.058 277.855 457.985C278.218 458.188 278.568 454.264 279.795 450.019C280.879 446.312 282.867 442.23 282.836 442.25Z" stroke="#A0A653" stroke-width="0.302363" stroke-miterlimit="10"/>
<path fill-rule="evenodd" clip-rule="evenodd" d="M305.066 431.391C302.447 429.67 302.516 424.443 300.247 429.655C300.235 429.689 297.319 437.037 299.178 436.396C299.258 436.367 311.632 435.705 305.066 431.391Z" fill="#F2F1EC"/>
<path fill-rule="evenodd" clip-rule="evenodd" d="M292.712 440.858C295.286 442.618 295.115 447.843 297.493 442.684C297.505 442.648 300.561 435.35 298.7 435.974C298.62 436.002 286.228 436.415 292.712 440.858Z" fill="#F2F1EC"/>
<path fill-rule="evenodd" clip-rule="evenodd" d="M303.73 441.44C306.601 440.474 309.037 439.032 305.625 437.286C305.607 437.272 298.279 434.741 298.761 436.654C298.786 436.718 298.478 445.216 301.136 444.648C303.255 444.206 303.441 441.53 303.73 441.44Z" fill="#F2F1EC"/>
<path fill-rule="evenodd" clip-rule="evenodd" d="M294.236 430.834C291.338 431.736 288.88 433.131 292.251 434.949C292.286 434.961 299.55 437.636 299.101 435.718C299.092 435.652 299.568 427.164 296.886 427.667C294.762 428.077 294.525 430.744 294.236 430.834Z" fill="#F2F1EC"/>
<path fill-rule="evenodd" clip-rule="evenodd" d="M300.013 435.878C300.926 434.595 299.791 435.12 299.593 435.382C299.553 435.336 299.537 435.221 299.523 435.005C299.483 434.222 298.677 434.585 298.653 435.259C298.333 434.767 297.193 435.259 297.986 436.022C298.005 436.036 297.223 436.816 298.197 436.95C298.575 437.015 298.624 436.639 298.651 436.836C298.656 436.869 298.401 437.089 298.778 437.39C298.984 437.546 299.211 437.364 299.337 436.944C299.398 437.019 299.741 437.323 299.916 437.25C300.046 437.216 300.069 436.893 299.898 436.631C300.283 436.746 300.665 436.475 300.633 436.245C300.606 436.165 300.367 435.895 300.013 435.878Z" fill="#F6C762"/>
<path fill-rule="evenodd" clip-rule="evenodd" d="M299.38 435.914C299.462 436.508 299.025 436.751 298.742 436.639C298.35 436.476 298.252 435.884 298.764 435.579C298.886 435.495 299.36 435.766 299.38 435.914Z" fill="#F6AE62"/>
<path fill-rule="evenodd" clip-rule="evenodd" d="M239.85 463.081C237.82 461.749 237.868 457.7 236.124 461.732C236.109 461.75 233.857 467.446 235.297 466.945C235.345 466.922 244.922 466.41 239.85 463.081Z" fill="#C76567"/>
<path fill-rule="evenodd" clip-rule="evenodd" d="M230.287 470.403C232.285 471.755 232.153 475.801 233.986 471.807C234.001 471.788 236.362 466.145 234.915 466.612C234.853 466.638 225.284 466.964 230.287 470.403Z" fill="#C76567"/>
<path fill-rule="evenodd" clip-rule="evenodd" d="M238.803 470.842C241.033 470.098 242.91 468.985 240.291 467.633C240.256 467.622 234.601 465.666 234.972 467.142C234.995 467.188 234.742 473.767 236.797 473.332C238.445 472.988 238.596 470.92 238.803 470.842Z" fill="#E58183"/>
<path fill-rule="evenodd" clip-rule="evenodd" d="M231.468 462.641C229.233 463.351 227.332 464.417 229.942 465.821C229.96 465.834 235.579 467.896 235.242 466.416C235.218 466.369 235.591 459.808 233.529 460.193C231.877 460.504 231.693 462.576 231.468 462.641Z" fill="#E58183"/>
<path fill-rule="evenodd" clip-rule="evenodd" d="M235.948 466.553C236.649 465.551 235.766 465.958 235.61 466.165C235.588 466.134 235.575 466.035 235.552 465.871C235.521 465.27 234.905 465.557 234.891 466.061C234.636 465.677 233.75 466.067 234.369 466.653C234.387 466.668 233.783 467.272 234.533 467.369C234.825 467.413 234.868 467.122 234.891 467.286C234.896 467.319 234.7 467.481 234.983 467.71C235.152 467.838 235.317 467.698 235.406 467.366C235.464 467.426 235.73 467.657 235.874 467.604C235.955 467.577 235.972 467.34 235.841 467.122C236.156 467.213 236.446 467.005 236.424 466.841C236.397 466.761 236.217 466.55 235.948 466.553Z" fill="#F6C762"/>
<path fill-rule="evenodd" clip-rule="evenodd" d="M235.448 466.572C235.511 467.034 235.169 467.232 234.954 467.127C234.651 467.001 234.572 466.558 234.976 466.319C235.068 466.255 235.432 466.457 235.448 466.572Z" fill="#F6AE62"/>
<path fill-rule="evenodd" clip-rule="evenodd" d="M279.984 470.292C283.244 469.475 281.787 468.15 287.699 466.497C295.211 464.389 298.248 474.391 296.853 478.76C295.625 482.636 292.216 485.303 299.766 489.08C301.335 489.871 304.293 497.232 301.209 500.056C297.025 503.902 308.835 508.653 298.039 517.739C295.541 519.827 283.583 518.403 282.562 520.976C279.91 527.666 275.885 528.052 271.866 524.814C267.959 521.66 267.545 522.556 262.909 525.929C260.715 527.54 253.367 524.741 252.198 520.389C250.627 514.583 246.365 516.779 246.665 509.205C246.769 506.791 242.891 508.231 242.979 501.927C243.08 494.363 248.342 498.219 245.153 488.943C243.917 485.323 242.227 478.408 246.445 476.384C255.684 471.958 253.426 477.739 258.038 467.725C259.819 463.84 271.431 458.367 273.446 461.797C276.401 466.81 276.445 464.203 278.889 470.377C279.241 471.234 279.579 470.399 279.984 470.292Z" fill="#B6D6EB"/>
<path fill-rule="evenodd" clip-rule="evenodd" d="M284.25 474.84C284.592 474.642 289.586 472.277 292.482 474.547C294.588 476.203 295.627 482.284 292.742 483.872C286.86 487.098 292.171 489.723 294.248 497.137C296.224 504.181 292.797 511.834 285.271 513.96C275.304 516.757 279.713 514.17 274.311 514.292C270.347 514.385 271.663 524.439 259.046 518.827C256.419 517.661 253.711 512.245 252.816 509.03C249.994 499.015 252.964 502.666 251.952 497.504C251.795 496.738 239.719 488.232 251.579 479.436C253.484 478.033 260.863 479.233 259.967 476.134C258.61 471.522 262.188 466.919 266.501 465.705C274.82 463.37 277.124 464.143 283.317 469.885C284.299 470.806 284.187 474.866 284.25 474.84Z" fill="#94BDD4"/>
<path fill-rule="evenodd" clip-rule="evenodd" d="M275.421 494.561C278.143 500.075 270.558 498.484 269.875 497.79C267.925 495.811 268.586 493.538 270.805 493.082C272.045 492.827 274.561 492.817 275.421 494.561ZM267.068 488.479C272.853 490.535 266.311 494.69 265.336 494.674C262.561 494.619 261.45 492.524 262.72 490.654C263.43 489.599 265.236 487.842 267.068 488.479ZM264.2 496.893C270.002 498.948 265.939 502.711 264.947 502.697C260.371 502.604 261.925 496.099 264.2 496.893ZM270.864 500.708C273.681 501.428 271.595 503.091 271.11 503.106C268.84 503.184 269.768 500.422 270.864 500.708ZM279.333 493.603C282.148 494.306 280.064 495.985 279.579 496.002C277.322 496.061 278.236 493.318 279.333 493.603ZM269.221 483.519C272.036 484.222 269.95 485.901 269.466 485.917C267.21 485.976 268.124 483.233 269.221 483.519ZM260.085 496.016C262.114 493.942 259.468 493.601 259.047 493.844C257.07 494.955 259.291 496.83 260.085 496.016ZM278.344 501.541C280.356 499.451 277.711 499.128 277.289 499.353C275.329 500.479 277.548 502.337 278.344 501.541ZM260.554 489.425C262.581 487.334 259.937 487.01 259.514 487.237C257.539 488.365 259.758 490.223 260.554 489.425ZM275.841 484.57C277.872 482.496 275.227 482.172 274.805 482.397C272.845 483.523 275.065 485.382 275.841 484.57ZM277.388 488.368C280.11 493.882 272.525 492.291 271.842 491.597C268.412 488.126 275.595 484.604 276.712 487.236C276.986 487.885 277.058 487.675 277.388 488.368Z" fill="#F2F1EC"/>
<path fill-rule="evenodd" clip-rule="evenodd" d="M310.931 479.321C313.056 478.794 312.1 477.956 315.952 476.892C320.829 475.535 322.781 481.869 321.874 484.635C321.062 487.086 318.841 488.78 323.735 491.165C324.746 491.661 326.657 496.313 324.656 498.11C321.92 500.558 329.59 503.531 322.558 509.313C320.924 510.658 313.164 509.769 312.497 511.4C310.747 515.652 308.139 515.91 305.524 513.863C303.001 511.87 302.719 512.443 299.703 514.597C298.282 515.611 293.509 513.861 292.769 511.104C291.766 507.432 288.989 508.833 289.205 504.04C289.269 502.51 286.752 503.424 286.819 499.421C286.901 494.645 290.306 497.069 288.263 491.199C287.468 488.918 286.385 484.537 289.126 483.257C295.138 480.424 293.652 484.089 296.674 477.739C297.845 475.271 305.396 471.775 306.706 473.935C308.62 477.115 308.648 475.456 310.218 479.369C310.446 479.906 310.664 479.374 310.931 479.321Z" fill="#C76567"/>
<path fill-rule="evenodd" clip-rule="evenodd" d="M313.623 482.522C313.839 482.394 316.998 480.907 318.836 482.33C320.166 483.364 320.818 487.135 318.98 488.127C315.255 490.134 318.612 491.774 319.914 496.375C321.155 500.773 318.983 505.539 314.192 506.856C307.889 508.61 310.682 507.01 307.26 507.086C304.759 507.152 305.571 513.413 297.576 509.931C295.92 509.206 294.22 505.858 293.643 503.851C291.882 497.621 293.75 499.878 293.108 496.681C293.026 496.199 285.387 490.925 292.9 485.44C294.117 484.549 298.79 485.302 298.224 483.376C297.377 480.503 299.659 477.626 302.384 476.874C307.672 475.406 309.126 475.88 313.03 479.433C313.661 480.004 313.575 482.545 313.623 482.522Z" fill="#E58183"/>
<path fill-rule="evenodd" clip-rule="evenodd" d="M307.999 494.909C309.715 498.492 304.957 497.434 304.532 496.978C303.297 495.692 303.704 494.215 305.088 493.939C305.874 493.762 307.445 493.769 307.999 494.909ZM302.741 490.938C306.382 492.288 302.286 494.958 301.672 494.94C299.949 494.902 299.25 493.543 300.023 492.324C300.462 491.663 301.593 490.514 302.741 490.938ZM300.961 496.374C304.601 497.722 302.077 500.16 301.463 500.142C298.594 500.073 299.55 495.849 300.961 496.374ZM305.156 498.88C306.925 499.356 305.617 500.426 305.321 500.433C303.904 500.474 304.468 498.683 305.156 498.88ZM310.444 494.298C312.209 494.758 310.904 495.845 310.607 495.852C309.192 495.892 309.756 494.102 310.444 494.298ZM304.084 487.723C305.836 488.2 304.545 489.269 304.232 489.278C302.817 489.318 303.398 487.542 304.084 487.723ZM298.387 495.802C299.656 494.464 297.989 494.231 297.729 494.387C296.505 495.102 297.897 496.334 298.387 495.802ZM309.844 499.433C311.098 498.097 309.446 497.861 309.186 498.018C307.947 498.736 309.355 499.963 309.844 499.433ZM298.672 491.516C299.927 490.178 298.26 489.962 298 490.119C296.777 490.834 298.168 492.048 298.672 491.516ZM308.231 488.436C309.502 487.097 307.833 486.864 307.574 487.02C306.334 487.738 307.74 488.949 308.231 488.436ZM309.214 490.887C310.93 494.472 306.176 493.429 305.749 492.975C303.587 490.72 308.07 488.458 308.783 490.159C308.956 490.58 308.988 490.456 309.214 490.887Z" fill="#F2F1EC"/>
<path fill-rule="evenodd" clip-rule="evenodd" d="M336.105 487.696C333.653 485.876 333.631 480.422 331.614 485.822C331.601 485.841 329.024 493.478 330.732 492.823C330.806 492.794 342.259 492.306 336.105 487.696Z" fill="#94BDD4"/>
<path fill-rule="evenodd" clip-rule="evenodd" d="M324.204 497.17C326.616 499.072 326.562 504.529 328.654 499.16C328.666 499.142 331.365 491.562 329.655 492.166C329.582 492.194 318.141 492.433 324.204 497.17Z" fill="#94BDD4"/>
<path fill-rule="evenodd" clip-rule="evenodd" d="M334.824 497.492C337.861 496.511 340.441 495.029 336.849 493.272C336.83 493.257 329.105 490.721 329.619 492.646C329.628 492.713 329.258 501.363 332.068 500.788C334.309 500.326 334.52 497.602 334.824 497.492Z" fill="#94BDD4"/>
<path fill-rule="evenodd" clip-rule="evenodd" d="M325.52 487.065C322.463 487.941 319.855 489.255 323.354 490.82C323.393 490.845 330.96 493.109 330.529 491.395C330.521 491.336 331.191 483.633 328.383 484.14C326.127 484.541 325.826 486.978 325.52 487.065Z" fill="#94BDD4"/>
<path fill-rule="evenodd" clip-rule="evenodd" d="M331.595 492.286C332.519 490.925 331.378 491.458 331.162 491.755C331.121 491.708 331.104 491.585 331.09 491.354C331.043 490.521 330.224 490.902 330.2 491.602C329.872 491.076 328.713 491.61 329.525 492.41C329.544 492.426 328.768 493.248 329.749 493.416C330.133 493.471 330.181 493.071 330.21 493.281C330.217 493.334 329.974 493.565 330.342 493.872C330.555 494.056 330.8 493.845 330.913 493.417C330.975 493.499 331.341 493.806 331.505 493.747C331.635 493.694 331.658 493.369 331.481 493.072C331.876 493.212 332.278 492.907 332.231 492.681C332.219 492.594 331.954 492.29 331.595 492.286Z" fill="#F6C762"/>
<path fill-rule="evenodd" clip-rule="evenodd" d="M330.168 492.365C330.259 492.896 329.801 493.125 329.515 493.014C329.124 492.872 329.035 492.355 329.552 492.057C329.695 491.992 330.15 492.232 330.168 492.365Z" fill="#F6AE62"/>
<path fill-rule="evenodd" clip-rule="evenodd" d="M313.332 470.369C311.304 469.037 311.352 465.003 309.608 469.035C309.595 469.053 307.339 474.734 308.78 474.234C308.827 474.21 318.404 473.698 313.332 470.369Z" fill="#D3E5F2"/>
<path fill-rule="evenodd" clip-rule="evenodd" d="M303.769 477.691C305.77 479.06 305.639 483.104 307.47 479.094C307.483 479.076 309.844 473.432 308.401 473.917C308.337 473.942 298.769 474.268 303.769 477.691Z" fill="#D3E5F2"/>
<path fill-rule="evenodd" clip-rule="evenodd" d="M312.327 478.034C314.333 477.312 316.042 476.2 313.618 474.778C313.601 474.763 308.4 472.675 308.76 474.191C308.783 474.239 308.653 480.948 310.534 480.535C312.016 480.211 312.121 478.097 312.327 478.034Z" fill="#C7DEED"/>
<path fill-rule="evenodd" clip-rule="evenodd" d="M304.952 469.944C302.715 470.639 300.817 471.722 303.426 473.124C303.446 473.138 309.064 475.2 308.726 473.72C308.719 473.671 309.073 467.096 307.014 467.496C305.363 467.807 305.178 469.879 304.952 469.944Z" fill="#C7DEED"/>
<path fill-rule="evenodd" clip-rule="evenodd" d="M309.431 473.841C310.134 472.856 309.248 473.246 309.094 473.468C309.07 473.422 309.059 473.34 309.054 473.172C309.019 472.556 308.387 472.845 308.376 473.366C308.122 472.981 307.235 473.372 307.853 473.958C307.869 473.956 307.265 474.559 308.019 474.673C308.309 474.718 308.353 474.426 308.373 474.574C308.378 474.607 308.185 474.785 308.467 475.014C308.634 475.126 308.816 474.983 308.907 474.669C308.948 474.729 309.216 474.962 309.36 474.909C309.44 474.88 309.455 474.627 309.327 474.427C309.642 474.517 309.929 474.293 309.906 474.129C309.897 474.063 309.701 473.855 309.431 473.841Z" fill="#F6C762"/>
<path fill-rule="evenodd" clip-rule="evenodd" d="M308.932 473.876C309.01 474.319 308.651 474.52 308.438 474.432C308.135 474.305 308.072 473.843 308.458 473.606C308.551 473.543 308.916 473.761 308.932 473.876Z" fill="#F6AE62"/>
<path fill-rule="evenodd" clip-rule="evenodd" d="M321.628 505.829C319.504 504.427 319.57 500.182 317.732 504.424C317.718 504.443 315.362 510.416 316.87 509.89C316.935 509.864 326.937 509.335 321.628 505.829Z" fill="#D3E5F2"/>
<path fill-rule="evenodd" clip-rule="evenodd" d="M312.065 513.008C314.155 514.455 314.042 518.718 315.928 514.494C315.943 514.475 318.398 508.526 316.893 509.033C316.843 509.059 306.843 509.39 312.065 513.008Z" fill="#D3E5F2"/>
<path fill-rule="evenodd" clip-rule="evenodd" d="M320.203 513.29C322.211 512.567 323.922 511.454 321.496 510.033C321.479 510.018 316.274 507.93 316.634 509.446C316.657 509.494 316.541 516.202 318.409 515.79C319.906 515.464 319.997 513.353 320.203 513.29Z" fill="#C7DEED"/>
<path fill-rule="evenodd" clip-rule="evenodd" d="M313.03 505.625C310.643 506.347 308.63 507.466 311.383 508.888C311.403 508.902 317.338 510.983 316.988 509.471C316.981 509.421 317.387 502.693 315.207 503.113C313.458 503.439 313.252 505.56 313.03 505.625Z" fill="#C7DEED"/>
<path fill-rule="evenodd" clip-rule="evenodd" d="M317.726 508.826C318.702 507.876 317.542 508.283 317.307 508.499C317.278 508.457 317.267 508.381 317.269 508.227C317.257 507.659 316.414 507.961 316.37 508.444C316.057 508.101 314.876 508.511 315.654 509.019C315.675 509.016 314.871 509.604 315.831 509.671C316.211 509.697 316.283 509.425 316.302 509.56C316.306 509.591 316.044 509.765 316.402 509.962C316.614 510.056 316.861 509.915 316.996 509.619C317.047 509.673 317.386 509.873 317.577 509.816C317.704 509.783 317.739 509.547 317.581 509.37C317.967 509.439 318.355 509.216 318.335 509.066C318.326 509.005 318.081 508.824 317.726 508.826Z" fill="#F6C762"/>
<path fill-rule="evenodd" clip-rule="evenodd" d="M317.354 509.27C317.425 509.789 316.963 510.028 316.691 509.928C316.305 509.786 316.231 509.249 316.73 508.965C316.87 508.888 317.335 509.136 317.354 509.27Z" fill="#F6AE62"/>
<path fill-rule="evenodd" clip-rule="evenodd" d="M370.218 495.929C367.455 494.128 367.534 488.614 365.137 494.111C365.122 494.131 362.048 501.902 364 501.213C364.08 501.186 377.153 500.477 370.218 495.929Z" fill="#D3E5F2"/>
<path fill-rule="evenodd" clip-rule="evenodd" d="M357.166 505.93C359.907 507.8 359.726 513.311 362.229 507.85C362.242 507.832 365.46 500.124 363.488 500.781C363.408 500.808 350.331 501.249 357.166 505.93Z" fill="#D3E5F2"/>
<path fill-rule="evenodd" clip-rule="evenodd" d="M368.809 506.541C371.843 505.536 374.417 504.009 370.807 502.157C370.789 502.142 363.057 499.482 363.568 501.491C363.594 501.555 363.268 510.526 366.074 509.938C368.306 509.464 368.504 506.635 368.809 506.541Z" fill="#C7DEED"/>
<path fill-rule="evenodd" clip-rule="evenodd" d="M358.798 495.353C355.74 496.294 353.141 497.775 356.693 499.685C356.727 499.698 364.398 502.518 363.936 500.501C363.909 500.437 364.405 491.478 361.593 492.016C359.337 492.443 359.104 495.261 358.798 495.353Z" fill="#C7DEED"/>
<path fill-rule="evenodd" clip-rule="evenodd" d="M364.898 500.671C365.853 499.314 364.654 499.866 364.443 500.163C364.401 500.102 364.385 499.987 364.369 499.754C364.324 498.938 363.472 499.324 363.449 500.014C363.109 499.491 361.907 500.026 362.738 500.817C362.756 500.832 361.948 501.664 362.974 501.809C363.369 501.871 363.415 501.478 363.442 501.677C363.449 501.726 363.197 501.962 363.59 502.26C363.798 502.432 364.039 502.232 364.164 501.796C364.227 501.887 364.606 502.204 364.797 502.128C364.907 502.079 364.931 501.758 364.755 501.462C365.175 501.589 365.588 501.298 365.54 501.069C365.527 500.971 365.27 500.687 364.898 500.671Z" fill="#F6C762"/>
<path fill-rule="evenodd" clip-rule="evenodd" d="M364.217 500.714C364.319 501.338 363.836 501.605 363.534 501.479C363.123 501.302 363.037 500.676 363.563 500.352C363.702 500.265 364.194 500.549 364.217 500.714Z" fill="#F6AE62"/>
<path fill-rule="evenodd" clip-rule="evenodd" d="M360.425 554.975C349.665 557.009 336.44 556.496 327.395 556.114C318.032 555.741 315.198 535.26 322.087 530.956C327.573 527.533 347.358 523.419 354.58 521.77C356.608 523.824 355.62 528.473 357.059 537.217C357.971 542.746 359.51 549.43 360.425 554.975Z" fill="#F5B69F"/>
<path fill-rule="evenodd" clip-rule="evenodd" d="M360.505 554.948C353.889 556.613 350.317 537.726 351.749 527.53C352.825 519.865 358.097 518.183 362.391 530.243C364.199 535.346 367.445 553.204 360.505 554.948Z" fill="#E58183"/>
<path fill-rule="evenodd" clip-rule="evenodd" d="M358.86 544.218C356.496 544.828 355.211 538.059 355.714 534.4C356.107 531.644 357.989 531.05 359.538 535.367C360.176 537.191 361.341 543.591 358.86 544.218Z" fill="#C76567"/>
<path fill-rule="evenodd" clip-rule="evenodd" d="M357.303 555.456C352.328 553.321 351.684 553.997 347.662 550.624C344.229 547.741 342.284 544.585 339.43 540.785C339.06 540.298 340.382 546.123 345.407 550.7C348.23 553.281 353.175 556.425 357.303 555.456Z" fill="#E58183"/>
<path fill-rule="evenodd" clip-rule="evenodd" d="M351.229 556.056C346.238 553.925 345.608 554.597 341.588 551.225C338.154 548.342 336.21 545.187 333.354 541.386C332.986 540.899 334.307 546.723 339.333 551.301C342.154 553.881 347.1 557.027 351.229 556.056Z" fill="#E58183"/>
<path fill-rule="evenodd" clip-rule="evenodd" d="M343.86 556.281C339.686 554.473 339.161 555.049 335.785 552.224C332.902 549.803 331.28 547.158 328.878 543.964C328.57 543.554 329.679 548.45 333.881 552.286C336.259 554.442 340.396 557.077 343.86 556.281Z" fill="#E58183"/>
<path fill-rule="evenodd" clip-rule="evenodd" d="M348.121 523.23C344.09 526.855 343.274 526.413 340.554 530.915C338.229 534.741 337.399 538.346 335.907 542.863C335.718 543.442 335.102 537.504 338.377 531.55C340.233 528.208 343.916 523.641 348.121 523.23Z" fill="#E58183"/>
<path fill-rule="evenodd" clip-rule="evenodd" d="M341.564 525.324C337.96 528.89 337.225 528.421 334.816 532.862C332.754 536.652 332.072 540.236 330.794 544.725C330.621 545.301 329.971 539.351 332.855 533.485C334.48 530.174 337.753 525.68 341.564 525.324Z" fill="#E58183"/>
<path fill-rule="evenodd" clip-rule="evenodd" d="M334.514 527.619C331.733 530.568 331.142 530.181 329.301 533.873C327.739 537.024 327.227 540.014 326.265 543.754C326.147 544.239 325.58 539.267 327.775 534.369C329.023 531.612 331.53 527.878 334.514 527.619Z" fill="#E58183"/>
<path fill-rule="evenodd" clip-rule="evenodd" d="M292.052 547.27C289.876 549.75 291.446 555.055 287.649 550.392C287.631 550.378 282.572 543.726 284.638 543.861C284.722 543.865 297.5 541.017 292.052 547.27Z" fill="#D3E5F2"/>
<path fill-rule="evenodd" clip-rule="evenodd" d="M276.8 541.164C278.916 538.624 277.254 533.367 281.14 537.949C281.158 537.964 286.338 544.516 284.26 544.416C284.176 544.411 271.467 547.519 276.8 541.164Z" fill="#D3E5F2"/>
<path fill-rule="evenodd" clip-rule="evenodd" d="M287.83 537.431C291.021 537.58 293.913 538.357 290.953 541.113C290.922 541.133 284.198 545.783 284.147 543.71C284.154 543.641 281.418 535.093 284.277 534.9C286.556 534.755 287.509 537.426 287.83 537.431Z" fill="#C7DEED"/>
<path fill-rule="evenodd" clip-rule="evenodd" d="M281.212 550.908C278.012 550.829 275.111 550.103 278.014 547.305C278.045 547.285 284.667 542.498 284.767 544.564C284.76 544.632 287.674 553.124 284.804 553.368C282.517 553.565 281.531 550.915 281.212 550.908Z" fill="#C7DEED"/>
<path fill-rule="evenodd" clip-rule="evenodd" d="M285.649 544.14C286.933 545.189 285.63 544.983 285.347 544.753C285.323 544.823 285.339 544.939 285.387 545.167C285.565 545.965 284.64 545.84 284.43 545.164C284.244 545.761 282.943 545.571 283.528 544.583C283.543 544.565 282.54 543.982 283.489 543.566C283.852 543.399 284.021 543.778 283.976 543.566C283.969 543.516 283.662 543.357 283.96 542.963C284.114 542.741 284.4 542.87 284.638 543.257C284.691 543.148 284.953 542.743 285.158 542.766C285.278 542.782 285.403 543.084 285.298 543.418C285.668 543.182 286.144 543.351 286.159 543.584C286.172 543.683 286.002 544.024 285.649 544.14Z" fill="#F6C762"/>
<path fill-rule="evenodd" clip-rule="evenodd" d="M284.998 544.281C284.911 543.656 284.374 543.528 284.116 543.732C283.785 544.012 283.856 544.639 284.449 544.81C284.606 544.855 285.02 544.445 284.998 544.281Z" fill="#F6AE62"/>
<defs>
<linearGradient id="paint0_linear_21_3126" x1="46.0001" y1="300.024" x2="554.04" y2="300.024" gradientUnits="userSpaceOnUse">
<stop stop-color="#F4BFBF"/>
<stop offset="1" stop-color="#FFD9C0"/>
</linearGradient>
<linearGradient id="paint1_linear_21_3126" x1="384" y1="419" x2="384" y2="548" gradientUnits="userSpaceOnUse">
<stop stop-color="#94DD92"/>
<stop offset="1" stop-color="#6EA483"/>
</linearGradient>
</defs>
</svg>
