<svg width="186" height="42" viewBox="0 0 186 42" fill="none" xmlns="http://www.w3.org/2000/svg">
<path d="M11.256 28.436C10.3973 28.3613 9.86533 28.128 9.66 27.736C9.45467 27.344 9.352 26.84 9.352 26.224C9.352 25.552 9.492 24.7307 9.772 23.76C10.052 22.7707 10.3973 21.6973 10.808 20.54C11.2373 19.3827 11.6667 18.2253 12.096 17.068C11.872 17.0867 11.6293 17.1147 11.368 17.152C11.1253 17.1707 10.8173 17.208 10.444 17.264C10.0707 17.3013 9.58533 17.3667 8.988 17.46C9.02533 16.9747 9.20267 16.6013 9.52 16.34C9.856 16.06 10.2947 15.8547 10.836 15.724C11.3773 15.5933 11.984 15.5187 12.656 15.5C13.1787 14.0627 13.7107 12.6627 14.252 11.3C14.812 9.91867 15.3627 8.65867 15.904 7.52C15.7173 7.50133 15.5307 7.492 15.344 7.492C15.176 7.47333 14.9987 7.464 14.812 7.464C13.6173 7.464 12.6933 7.58533 12.04 7.828C11.3867 8.07067 10.9387 8.444 10.696 8.948C10.4533 9.452 10.332 10.096 10.332 10.88C10.332 11.2907 10.36 11.6733 10.416 12.028C10.472 12.364 10.5653 12.7187 10.696 13.092C10.0613 12.98 9.59467 12.7373 9.296 12.364C8.99733 11.972 8.848 11.4867 8.848 10.908C8.848 9.93733 9.19333 9.088 9.884 8.36C10.5747 7.61333 11.4987 7.03467 12.656 6.624C13.832 6.19467 15.1293 5.98 16.548 5.98C17.5373 5.98 18.4893 6.05467 19.404 6.204C20.3373 6.33467 21.2427 6.4 22.12 6.4C22.512 6.4 22.8667 6.38133 23.184 6.344C23.52 6.288 23.856 6.21333 24.192 6.12C23.5013 6.904 22.9227 7.42667 22.456 7.688C21.9893 7.94933 21.5133 8.08 21.028 8.08C20.5987 8.08 20.0387 8.024 19.348 7.912C18.676 7.78133 17.9107 7.67867 17.052 7.604C16.8093 8.22 16.5387 8.96667 16.24 9.844C15.9413 10.7027 15.6333 11.6267 15.316 12.616C14.9987 13.5867 14.6813 14.5573 14.364 15.528C15.2973 15.584 16.1747 15.668 16.996 15.78C17.836 15.892 18.592 15.9573 19.264 15.976C19.1147 16.2 18.9373 16.3773 18.732 16.508C18.5453 16.62 18.2747 16.704 17.92 16.76C17.5653 16.816 17.0707 16.8627 16.436 16.9C15.82 16.9187 14.9893 16.9373 13.944 16.956C13.832 17.348 13.692 17.8147 13.524 18.356C13.356 18.8973 13.2067 19.4107 13.076 19.896C12.9453 20.3813 12.8427 20.736 12.768 20.96C12.3573 22.3973 12.0027 23.7413 11.704 24.992C11.424 26.2427 11.2747 27.3907 11.256 28.436ZM22.4928 27.232C21.3541 27.232 20.4954 26.9147 19.9168 26.28C19.3567 25.664 19.0767 24.8987 19.0767 23.984C19.0767 23.144 19.2821 22.2573 19.6928 21.324C20.1221 20.3907 20.6821 19.5133 21.3728 18.692C22.0821 17.8707 22.8568 17.208 23.6968 16.704C24.5368 16.1813 25.3674 15.92 26.1888 15.92C26.6181 15.92 27.0101 16.032 27.3648 16.256C27.7381 16.48 27.9248 16.9373 27.9248 17.628C27.9248 18.3373 27.7101 19.0093 27.2808 19.644C26.8701 20.26 26.3194 20.8107 25.6288 21.296C24.9568 21.7813 24.2101 22.1827 23.3888 22.5C22.5861 22.7987 21.7834 22.9853 20.9808 23.06C20.9434 23.2467 20.9154 23.424 20.8968 23.592C20.8781 23.76 20.8688 23.9187 20.8688 24.068C20.8688 24.348 20.8968 24.628 20.9528 24.908C21.0274 25.188 21.1488 25.4493 21.3167 25.692C21.4848 25.916 21.7088 26.0933 21.9888 26.224C22.2874 26.3547 22.6514 26.42 23.0808 26.42C23.8834 26.42 24.6768 26.196 25.4608 25.748C26.2448 25.2813 26.9728 24.6747 27.6448 23.928C28.3168 23.1813 28.8861 22.36 29.3528 21.464L29.6888 21.716C29.1848 22.836 28.5408 23.8067 27.7568 24.628C26.9914 25.4493 26.1514 26.084 25.2368 26.532C24.3408 26.9987 23.4261 27.232 22.4928 27.232ZM21.1208 22.528C21.6248 22.36 22.1941 22.1173 22.8288 21.8C23.4634 21.464 24.0701 21.072 24.6488 20.624C25.2461 20.176 25.7314 19.6813 26.1048 19.14C26.4968 18.5987 26.6928 18.0293 26.6928 17.432C26.6928 17.2267 26.6554 17.068 26.5808 16.956C26.5061 16.844 26.3474 16.788 26.1048 16.788C25.6568 16.788 25.1808 16.9653 24.6768 17.32C24.1728 17.656 23.6874 18.104 23.2208 18.664C22.7541 19.224 22.3341 19.84 21.9608 20.512C21.5874 21.184 21.3074 21.856 21.1208 22.528ZM30.809 26.728C30.081 26.728 29.5396 26.4947 29.185 26.028C28.8303 25.58 28.653 25.0293 28.653 24.376C28.653 23.9467 28.7276 23.4053 28.877 22.752C29.045 22.0987 29.2596 21.4173 29.521 20.708C29.7823 19.98 30.081 19.2987 30.417 18.664C30.7716 18.0293 31.145 17.516 31.537 17.124C31.929 16.7133 32.3116 16.508 32.685 16.508C32.853 16.508 32.993 16.564 33.105 16.676C33.2356 16.7693 33.301 16.9187 33.301 17.124C33.301 17.348 33.1516 17.712 32.853 18.216C32.573 18.72 32.237 19.2987 31.845 19.952C31.453 20.6053 31.1076 21.296 30.809 22.024C30.529 22.7333 30.389 23.4147 30.389 24.068C30.389 24.74 30.501 25.188 30.725 25.412C30.949 25.636 31.2943 25.748 31.761 25.748C32.3956 25.748 33.0676 25.4307 33.777 24.796C34.505 24.1613 35.2703 23.0507 36.073 21.464L36.325 21.744C35.7836 23.3493 34.9996 24.5813 33.973 25.44C32.965 26.2987 31.9103 26.728 30.809 26.728ZM34.169 13.904C33.8703 13.904 33.5996 13.8293 33.357 13.68C33.133 13.5307 33.021 13.2973 33.021 12.98C33.021 12.588 33.245 12.252 33.693 11.972C34.1596 11.6733 34.617 11.524 35.065 11.524C35.345 11.524 35.569 11.5893 35.737 11.72C35.905 11.8507 35.989 12.0747 35.989 12.392C35.989 12.7467 35.793 13.092 35.401 13.428C35.0276 13.7453 34.617 13.904 34.169 13.904ZM37.9269 27.288C37.1242 27.288 36.5082 27.0547 36.0789 26.588C35.6495 26.1213 35.4349 25.4307 35.4349 24.516C35.4349 23.6947 35.5842 22.6867 35.8829 21.492C36.2002 20.2787 36.5922 19.0373 37.0589 17.768C36.8722 17.7307 36.6949 17.7027 36.5269 17.684C36.3589 17.6467 36.2002 17.6 36.0509 17.544V17.04C36.2002 17.0587 36.3775 17.0773 36.5829 17.096C36.7882 17.1147 37.0215 17.1333 37.2829 17.152C37.6749 16.144 38.0949 15.1733 38.5429 14.24C38.9909 13.288 39.4295 12.448 39.8589 11.72C40.3069 10.9733 40.7269 10.3853 41.1189 9.956C41.5295 9.508 41.8749 9.284 42.1549 9.284C42.3042 9.284 42.4349 9.34 42.5469 9.452C42.6775 9.54533 42.7429 9.69467 42.7429 9.9C42.7429 10.2173 42.5469 10.74 42.1549 11.468C41.7629 12.1773 41.2775 13.0267 40.6989 14.016C40.1202 15.0053 39.5602 16.0787 39.0189 17.236C39.1869 17.236 39.3549 17.236 39.5229 17.236C39.7095 17.236 39.8869 17.236 40.0549 17.236C40.6709 17.236 41.3149 17.2267 41.9869 17.208C42.6775 17.1893 43.3682 17.1427 44.0589 17.068V17.572C43.0322 17.684 42.1082 17.768 41.2869 17.824C40.4842 17.88 39.7655 17.908 39.1309 17.908C39.0562 17.908 38.9815 17.908 38.9069 17.908C38.8509 17.908 38.7855 17.908 38.7109 17.908C38.2815 18.8973 37.9175 19.9147 37.6189 20.96C37.3202 22.0053 37.1709 23.0227 37.1709 24.012C37.1709 24.8147 37.2922 25.3933 37.5349 25.748C37.7775 26.084 38.1789 26.252 38.7389 26.252C39.7095 26.252 40.6615 25.8227 41.5949 24.964C42.5282 24.1053 43.3495 22.9387 44.0589 21.464L44.4229 21.744C43.9749 22.7893 43.4055 23.732 42.7149 24.572C42.0429 25.412 41.2962 26.0747 40.4749 26.56C39.6535 27.0453 38.8042 27.288 37.9269 27.288ZM45.4633 26.896C44.6606 26.896 44.0913 26.644 43.7553 26.14C43.4192 25.6547 43.2512 25.0573 43.2512 24.348C43.2512 23.7693 43.3446 23.172 43.5312 22.556C43.7179 21.94 43.9606 21.3613 44.2593 20.82C44.5766 20.2787 44.9219 19.84 45.2953 19.504C45.6873 19.168 46.0793 19 46.4713 19C46.5646 19 46.6579 19.0187 46.7513 19.056C46.8633 19.0747 46.9659 19.1027 47.0593 19.14C46.8913 19.2893 46.6859 19.5693 46.4433 19.98C46.2193 20.372 46.0046 20.8293 45.7993 21.352C45.5939 21.856 45.4166 22.36 45.2673 22.864C45.1366 23.368 45.0713 23.7973 45.0713 24.152C45.0713 24.712 45.1646 25.1227 45.3513 25.384C45.5379 25.6267 45.7806 25.748 46.0793 25.748C46.4713 25.748 46.9379 25.5427 47.4793 25.132C48.0206 24.7027 48.5526 24.1613 49.0753 23.508C48.5526 23.0787 48.1419 22.5187 47.8433 21.828C47.5633 21.1187 47.4233 20.4 47.4233 19.672C47.4233 19.056 47.5259 18.4773 47.7313 17.936C47.9553 17.3947 48.2726 16.9653 48.6833 16.648C49.0939 16.312 49.5886 16.144 50.1673 16.144C50.9326 16.144 51.4459 16.3493 51.7073 16.76C51.9686 17.1707 52.0993 17.684 52.0993 18.3C52.0993 19.028 51.9219 19.84 51.5673 20.736C51.2126 21.6133 50.7646 22.4627 50.2233 23.284C50.5593 23.4707 50.9139 23.564 51.2873 23.564C51.5859 23.564 51.9219 23.508 52.2953 23.396C52.6686 23.2653 53.0326 23.0507 53.3873 22.752C53.7606 22.4533 54.0593 22.052 54.2833 21.548L54.6193 21.828C54.2459 22.7053 53.7139 23.3307 53.0233 23.704C52.3513 24.0587 51.7073 24.236 51.0913 24.236C50.8486 24.236 50.6153 24.2173 50.3913 24.18C50.1673 24.124 49.9526 24.0493 49.7473 23.956C49.1126 24.796 48.4126 25.496 47.6472 26.056C46.9006 26.616 46.1726 26.896 45.4633 26.896ZM49.5793 22.78C50.0459 22.0893 50.4286 21.3707 50.7272 20.624C51.0446 19.8587 51.2033 19.14 51.2033 18.468C51.2033 17.9267 51.1193 17.5347 50.9513 17.292C50.8019 17.0307 50.6059 16.9 50.3633 16.9C49.9899 16.9 49.6073 17.1707 49.2153 17.712C48.8233 18.2533 48.6273 18.9347 48.6273 19.756C48.6273 20.2973 48.7019 20.848 48.8513 21.408C49.0193 21.9493 49.2619 22.4067 49.5793 22.78ZM64.0273 27.568C63.1313 27.568 62.3846 27.2693 61.7873 26.672C61.1899 26.0747 60.8912 25.1787 60.8912 23.984C60.8912 23.0507 61.0686 22.1453 61.4233 21.268C61.7966 20.372 62.2819 19.5693 62.8792 18.86C63.4766 18.1507 64.1393 17.5907 64.8673 17.18C65.5953 16.7507 66.3139 16.536 67.0233 16.536C67.7886 16.536 68.3113 16.76 68.5913 17.208C68.8713 17.656 69.0113 18.1227 69.0113 18.608C69.0113 19.1493 68.8806 19.6253 68.6193 20.036C68.3766 20.4467 68.0406 20.652 67.6113 20.652C67.2939 20.652 67.0233 20.512 66.7993 20.232C67.0793 20.0827 67.3219 19.784 67.5273 19.336C67.7326 18.8693 67.8353 18.4307 67.8353 18.02C67.8353 17.796 67.7886 17.628 67.6953 17.516C67.6206 17.3853 67.4619 17.32 67.2193 17.32C66.7153 17.32 66.1926 17.544 65.6513 17.992C65.1286 18.44 64.6339 19.0187 64.1673 19.728C63.7193 20.4373 63.3459 21.184 63.0473 21.968C62.7673 22.752 62.6273 23.4893 62.6273 24.18C62.6273 24.7587 62.7673 25.2907 63.0473 25.776C63.3273 26.2613 63.8686 26.504 64.6713 26.504C65.4179 26.504 66.1646 26.2987 66.9113 25.888C67.6766 25.4773 68.3859 24.8893 69.0393 24.124C69.6926 23.3587 70.2153 22.4627 70.6073 21.436L70.9713 21.716C70.5419 22.836 69.9539 23.844 69.2073 24.74C68.4606 25.6173 67.6393 26.308 66.7433 26.812C65.8473 27.316 64.9419 27.568 64.0273 27.568ZM72.014 26.896C71.2114 26.896 70.642 26.644 70.306 26.14C69.97 25.6547 69.802 25.0573 69.802 24.348C69.802 23.7693 69.8954 23.172 70.082 22.556C70.2687 21.94 70.5114 21.3613 70.81 20.82C71.1274 20.2787 71.4727 19.84 71.846 19.504C72.238 19.168 72.63 19 73.022 19C73.1154 19 73.2087 19.0187 73.302 19.056C73.414 19.0747 73.5167 19.1027 73.61 19.14C73.442 19.2893 73.2367 19.5693 72.994 19.98C72.77 20.372 72.5554 20.8293 72.35 21.352C72.1447 21.856 71.9674 22.36 71.818 22.864C71.6874 23.368 71.622 23.7973 71.622 24.152C71.622 24.712 71.7154 25.1227 71.902 25.384C72.0887 25.6267 72.3314 25.748 72.63 25.748C73.022 25.748 73.4887 25.5427 74.03 25.132C74.5714 24.7027 75.1034 24.1613 75.626 23.508C75.1034 23.0787 74.6927 22.5187 74.394 21.828C74.114 21.1187 73.974 20.4 73.974 19.672C73.974 19.056 74.0767 18.4773 74.282 17.936C74.506 17.3947 74.8234 16.9653 75.234 16.648C75.6447 16.312 76.1394 16.144 76.718 16.144C77.4834 16.144 77.9967 16.3493 78.258 16.76C78.5194 17.1707 78.65 17.684 78.65 18.3C78.65 19.028 78.4727 19.84 78.118 20.736C77.7634 21.6133 77.3154 22.4627 76.774 23.284C77.11 23.4707 77.4647 23.564 77.838 23.564C78.1367 23.564 78.4727 23.508 78.846 23.396C79.2194 23.2653 79.5834 23.0507 79.938 22.752C80.3114 22.4533 80.61 22.052 80.834 21.548L81.17 21.828C80.7967 22.7053 80.2647 23.3307 79.574 23.704C78.902 24.0587 78.258 24.236 77.642 24.236C77.3994 24.236 77.166 24.2173 76.942 24.18C76.718 24.124 76.5034 24.0493 76.298 23.956C75.6634 24.796 74.9634 25.496 74.198 26.056C73.4514 26.616 72.7234 26.896 72.014 26.896ZM76.13 22.78C76.5967 22.0893 76.9794 21.3707 77.278 20.624C77.5954 19.8587 77.754 19.14 77.754 18.468C77.754 17.9267 77.67 17.5347 77.502 17.292C77.3527 17.0307 77.1567 16.9 76.914 16.9C76.5407 16.9 76.158 17.1707 75.766 17.712C75.374 18.2533 75.178 18.9347 75.178 19.756C75.178 20.2973 75.2527 20.848 75.402 21.408C75.57 21.9493 75.8127 22.4067 76.13 22.78ZM94.4206 26.868C93.7673 26.868 93.2913 26.6627 92.9926 26.252C92.6939 25.86 92.5446 25.384 92.5446 24.824C92.5446 24.3573 92.6099 23.8907 92.7406 23.424C92.8899 22.9573 93.0299 22.5 93.1606 22.052C93.3099 21.604 93.3846 21.2027 93.3846 20.848C93.3846 20.4747 93.3006 20.2133 93.1326 20.064C92.9646 19.9147 92.7779 19.84 92.5726 19.84C92.1059 19.84 91.5926 20.204 91.0326 20.932C90.4913 21.66 89.7819 22.6867 88.9046 24.012C88.6059 24.46 88.3539 24.9173 88.1486 25.384C87.9433 25.832 87.7473 26.2427 87.5606 26.616C87.4113 26.616 87.2246 26.5973 87.0006 26.56C86.7766 26.5227 86.5713 26.4573 86.3846 26.364C86.2166 26.2893 86.1326 26.1867 86.1326 26.056C86.1326 25.9253 86.2166 25.6173 86.3846 25.132C86.5713 24.628 86.7766 24.0493 87.0006 23.396C87.2433 22.724 87.4486 22.052 87.6166 21.38C87.8033 20.6893 87.8966 20.1013 87.8966 19.616C87.8966 19.2987 87.8406 19.0467 87.7286 18.86C87.6353 18.6547 87.4579 18.552 87.1966 18.552C86.7859 18.552 86.2913 18.804 85.7126 19.308C85.1339 19.7933 84.5366 20.4373 83.9206 21.24C83.3046 22.0427 82.7166 22.9293 82.1566 23.9C81.6153 24.852 81.1766 25.804 80.8406 26.756C80.6726 26.756 80.4673 26.728 80.2246 26.672C79.9819 26.616 79.7766 26.5413 79.6086 26.448C79.4219 26.3547 79.3286 26.2613 79.3286 26.168C79.3286 26.056 79.4313 25.7293 79.6366 25.188C79.8233 24.628 80.0473 23.9653 80.3086 23.2C80.5513 22.416 80.7659 21.6227 80.9526 20.82C81.1579 20.0173 81.2606 19.308 81.2606 18.692C81.3726 18.5613 81.5499 18.4307 81.7926 18.3C82.0353 18.1693 82.2873 18.104 82.5486 18.104C82.8099 18.104 82.9966 18.1693 83.1086 18.3C83.2393 18.4307 83.3046 18.608 83.3046 18.832C83.3046 19.0747 83.2299 19.4947 83.0806 20.092C82.9499 20.6707 82.7819 21.3147 82.5766 22.024C82.9499 21.4267 83.3699 20.82 83.8366 20.204C84.3219 19.5693 84.8259 18.9907 85.3486 18.468C85.8713 17.9453 86.3939 17.5253 86.9166 17.208C87.4579 16.872 87.9806 16.704 88.4846 16.704C89.0633 16.704 89.4553 16.9187 89.6606 17.348C89.8846 17.7587 89.9966 18.2533 89.9966 18.832C89.9966 19.2987 89.9406 19.7933 89.8286 20.316C89.7353 20.82 89.6233 21.296 89.4926 21.744C89.3619 22.1733 89.2406 22.5187 89.1286 22.78C89.5206 22.0707 89.9499 21.3893 90.4166 20.736C90.9019 20.064 91.4246 19.5227 91.9846 19.112C92.5446 18.6827 93.1419 18.468 93.7766 18.468C94.3739 18.468 94.7846 18.6453 95.0086 19C95.2513 19.3547 95.3726 19.7747 95.3726 20.26C95.3726 20.7453 95.2886 21.2773 95.1206 21.856C94.9526 22.4347 94.7753 22.9947 94.5886 23.536C94.4206 24.0773 94.3366 24.544 94.3366 24.936C94.3366 25.1787 94.3926 25.4027 94.5046 25.608C94.6353 25.7947 94.8593 25.888 95.1766 25.888C95.6993 25.888 96.1846 25.6547 96.6326 25.188C97.0993 24.7027 97.5286 24.124 97.9206 23.452C98.3126 22.7613 98.6486 22.0987 98.9286 21.464L99.2646 21.856C98.9659 22.64 98.5833 23.424 98.1166 24.208C97.6499 24.9733 97.0993 25.608 96.4646 26.112C95.8486 26.616 95.1673 26.868 94.4206 26.868ZM109.94 28.436C109.081 28.3613 108.549 28.128 108.344 27.736C108.138 27.344 108.036 26.84 108.036 26.224C108.036 25.552 108.176 24.7307 108.456 23.76C108.736 22.7707 109.081 21.6973 109.492 20.54C109.921 19.3827 110.35 18.2253 110.78 17.068C110.556 17.0867 110.313 17.1147 110.052 17.152C109.809 17.1707 109.501 17.208 109.128 17.264C108.754 17.3013 108.269 17.3667 107.672 17.46C107.709 16.9747 107.886 16.6013 108.204 16.34C108.54 16.06 108.978 15.8547 109.52 15.724C110.061 15.5933 110.668 15.5187 111.34 15.5C111.862 14.0627 112.394 12.6627 112.936 11.3C113.496 9.91867 114.046 8.65867 114.588 7.52C114.401 7.50133 114.214 7.492 114.028 7.492C113.86 7.47333 113.682 7.464 113.496 7.464C112.301 7.464 111.377 7.58533 110.724 7.828C110.07 8.07067 109.622 8.444 109.38 8.948C109.137 9.452 109.016 10.096 109.016 10.88C109.016 11.2907 109.044 11.6733 109.1 12.028C109.156 12.364 109.249 12.7187 109.38 13.092C108.745 12.98 108.278 12.7373 107.98 12.364C107.681 11.972 107.532 11.4867 107.532 10.908C107.532 9.93733 107.877 9.088 108.568 8.36C109.258 7.61333 110.182 7.03467 111.34 6.624C112.516 6.19467 113.813 5.98 115.232 5.98C116.221 5.98 117.173 6.05467 118.088 6.204C119.021 6.33467 119.926 6.4 120.804 6.4C121.196 6.4 121.55 6.38133 121.868 6.344C122.204 6.288 122.54 6.21333 122.876 6.12C122.185 6.904 121.606 7.42667 121.14 7.688C120.673 7.94933 120.197 8.08 119.712 8.08C119.282 8.08 118.722 8.024 118.032 7.912C117.36 7.78133 116.594 7.67867 115.736 7.604C115.493 8.22 115.222 8.96667 114.924 9.844C114.625 10.7027 114.317 11.6267 114 12.616C113.682 13.5867 113.365 14.5573 113.048 15.528C113.981 15.584 114.858 15.668 115.68 15.78C116.52 15.892 117.276 15.9573 117.948 15.976C117.798 16.2 117.621 16.3773 117.416 16.508C117.229 16.62 116.958 16.704 116.604 16.76C116.249 16.816 115.754 16.8627 115.12 16.9C114.504 16.9187 113.673 16.9373 112.628 16.956C112.516 17.348 112.376 17.8147 112.208 18.356C112.04 18.8973 111.89 19.4107 111.76 19.896C111.629 20.3813 111.526 20.736 111.452 20.96C111.041 22.3973 110.686 23.7413 110.388 24.992C110.108 26.2427 109.958 27.3907 109.94 28.436ZM121.176 27.232C120.038 27.232 119.179 26.9147 118.6 26.28C118.04 25.664 117.76 24.8987 117.76 23.984C117.76 23.144 117.966 22.2573 118.376 21.324C118.806 20.3907 119.366 19.5133 120.056 18.692C120.766 17.8707 121.54 17.208 122.38 16.704C123.22 16.1813 124.051 15.92 124.872 15.92C125.302 15.92 125.694 16.032 126.048 16.256C126.422 16.48 126.608 16.9373 126.608 17.628C126.608 18.3373 126.394 19.0093 125.964 19.644C125.554 20.26 125.003 20.8107 124.312 21.296C123.64 21.7813 122.894 22.1827 122.072 22.5C121.27 22.7987 120.467 22.9853 119.664 23.06C119.627 23.2467 119.599 23.424 119.58 23.592C119.562 23.76 119.552 23.9187 119.552 24.068C119.552 24.348 119.58 24.628 119.636 24.908C119.711 25.188 119.832 25.4493 120 25.692C120.168 25.916 120.392 26.0933 120.672 26.224C120.971 26.3547 121.335 26.42 121.764 26.42C122.567 26.42 123.36 26.196 124.144 25.748C124.928 25.2813 125.656 24.6747 126.328 23.928C127 23.1813 127.57 22.36 128.036 21.464L128.372 21.716C127.868 22.836 127.224 23.8067 126.44 24.628C125.675 25.4493 124.835 26.084 123.92 26.532C123.024 26.9987 122.11 27.232 121.176 27.232ZM119.804 22.528C120.308 22.36 120.878 22.1173 121.512 21.8C122.147 21.464 122.754 21.072 123.332 20.624C123.93 20.176 124.415 19.6813 124.788 19.14C125.18 18.5987 125.376 18.0293 125.376 17.432C125.376 17.2267 125.339 17.068 125.264 16.956C125.19 16.844 125.031 16.788 124.788 16.788C124.34 16.788 123.864 16.9653 123.36 17.32C122.856 17.656 122.371 18.104 121.904 18.664C121.438 19.224 121.018 19.84 120.644 20.512C120.271 21.184 119.991 21.856 119.804 22.528ZM129.801 26.84C128.998 26.84 128.419 26.56 128.065 26C127.729 25.4587 127.561 24.7773 127.561 23.956C127.561 23.06 127.729 21.996 128.065 20.764C128.401 19.532 128.839 18.2347 129.381 16.872C129.941 15.5093 130.547 14.184 131.201 12.896C131.854 11.5893 132.507 10.404 133.161 9.34C133.814 8.276 134.411 7.42667 134.953 6.792C135.513 6.15733 135.951 5.84 136.269 5.84C136.474 5.84 136.642 5.96133 136.773 6.204C136.903 6.428 137.006 6.708 137.081 7.044C137.155 7.36133 137.193 7.65067 137.193 7.912C137.193 8.416 137.062 9.07867 136.801 9.9C136.558 10.7027 136.203 11.608 135.737 12.616C135.289 13.6053 134.747 14.6133 134.113 15.64C133.497 16.648 132.815 17.6187 132.069 18.552C131.341 19.4853 130.566 20.288 129.745 20.96C129.633 21.464 129.539 21.9587 129.465 22.444C129.409 22.9107 129.381 23.3587 129.381 23.788C129.381 24.516 129.483 25.0573 129.689 25.412C129.894 25.7667 130.202 25.944 130.613 25.944C131.117 25.944 131.611 25.72 132.097 25.272C132.601 24.824 133.067 24.264 133.497 23.592C133.945 22.9013 134.327 22.192 134.645 21.464L135.065 21.688C134.318 23.2747 133.506 24.5347 132.629 25.468C131.751 26.3827 130.809 26.84 129.801 26.84ZM129.997 20.008C130.65 19.3547 131.285 18.608 131.901 17.768C132.517 16.9093 133.086 16.0227 133.609 15.108C134.15 14.1933 134.626 13.3067 135.037 12.448C135.447 11.5893 135.765 10.824 135.989 10.152C136.213 9.46133 136.325 8.92933 136.325 8.556C136.325 8.36933 136.297 8.248 136.241 8.192C136.203 8.136 136.166 8.108 136.129 8.108C135.979 8.108 135.718 8.35067 135.345 8.836C134.99 9.30267 134.57 9.93733 134.085 10.74C133.599 11.5427 133.105 12.4573 132.601 13.484C132.097 14.5107 131.611 15.584 131.145 16.704C130.697 17.824 130.314 18.9253 129.997 20.008ZM136.474 27.288C135.671 27.288 135.055 27.0547 134.626 26.588C134.196 26.1213 133.982 25.4307 133.982 24.516C133.982 23.6947 134.131 22.6867 134.43 21.492C134.747 20.2787 135.139 19.0373 135.606 17.768C135.419 17.7307 135.242 17.7027 135.074 17.684C134.906 17.6467 134.747 17.6 134.598 17.544V17.04C134.747 17.0587 134.924 17.0773 135.13 17.096C135.335 17.1147 135.568 17.1333 135.83 17.152C136.222 16.144 136.642 15.1733 137.09 14.24C137.538 13.288 137.976 12.448 138.406 11.72C138.854 10.9733 139.274 10.3853 139.666 9.956C140.076 9.508 140.422 9.284 140.702 9.284C140.851 9.284 140.982 9.34 141.094 9.452C141.224 9.54533 141.29 9.69467 141.29 9.9C141.29 10.2173 141.094 10.74 140.702 11.468C140.31 12.1773 139.824 13.0267 139.246 14.016C138.667 15.0053 138.107 16.0787 137.566 17.236C137.734 17.236 137.902 17.236 138.07 17.236C138.256 17.236 138.434 17.236 138.602 17.236C139.218 17.236 139.862 17.2267 140.534 17.208C141.224 17.1893 141.915 17.1427 142.606 17.068V17.572C141.579 17.684 140.655 17.768 139.834 17.824C139.031 17.88 138.312 17.908 137.678 17.908C137.603 17.908 137.528 17.908 137.454 17.908C137.398 17.908 137.332 17.908 137.258 17.908C136.828 18.8973 136.464 19.9147 136.166 20.96C135.867 22.0053 135.718 23.0227 135.718 24.012C135.718 24.8147 135.839 25.3933 136.082 25.748C136.324 26.084 136.726 26.252 137.286 26.252C138.256 26.252 139.208 25.8227 140.142 24.964C141.075 24.1053 141.896 22.9387 142.606 21.464L142.97 21.744C142.522 22.7893 141.952 23.732 141.262 24.572C140.59 25.412 139.843 26.0747 139.022 26.56C138.2 27.0453 137.351 27.288 136.474 27.288ZM146.922 26.728C146.287 26.728 145.783 26.56 145.41 26.224C145.055 25.888 144.878 25.4493 144.878 24.908C144.878 24.348 145.009 23.76 145.27 23.144C145.531 22.528 145.783 21.9213 146.026 21.324C146.287 20.708 146.418 20.1573 146.418 19.672C146.418 19.0747 146.241 18.636 145.886 18.356C145.55 18.0573 145.205 17.7867 144.85 17.544C144.421 18.6453 143.973 19.6907 143.506 20.68C143.039 21.6693 142.657 22.416 142.358 22.92L142.106 22.444C142.367 21.9587 142.703 21.2493 143.114 20.316C143.543 19.3827 143.963 18.3187 144.374 17.124C144.187 16.9373 144.094 16.7133 144.094 16.452C144.094 15.892 144.253 15.4347 144.57 15.08C144.887 14.7253 145.121 14.548 145.27 14.548C145.475 14.548 145.587 14.6413 145.606 14.828C145.643 14.996 145.662 15.1267 145.662 15.22C145.662 15.3133 145.606 15.5 145.494 15.78C145.401 16.0413 145.354 16.2 145.354 16.256C145.354 16.5173 145.494 16.76 145.774 16.984C146.073 17.1893 146.409 17.432 146.782 17.712C147.155 17.9733 147.482 18.3 147.762 18.692C148.061 19.0653 148.21 19.5507 148.21 20.148C148.21 20.708 148.089 21.2773 147.846 21.856C147.622 22.4347 147.389 22.9853 147.146 23.508C146.922 24.0307 146.81 24.488 146.81 24.88C146.81 25.216 146.894 25.44 147.062 25.552C147.23 25.664 147.426 25.72 147.65 25.72C148.098 25.72 148.555 25.58 149.022 25.3C149.507 25.02 149.974 24.6653 150.422 24.236C150.87 23.8067 151.271 23.3587 151.626 22.892C151.981 22.4067 152.242 21.9587 152.41 21.548L152.774 21.828C152.419 22.612 151.934 23.3867 151.318 24.152C150.702 24.8987 150.011 25.5147 149.246 26C148.499 26.4853 147.725 26.728 146.922 26.728ZM153.745 26.896C152.942 26.896 152.373 26.644 152.037 26.14C151.7 25.6547 151.532 25.0573 151.532 24.348C151.532 23.7693 151.626 23.172 151.812 22.556C151.999 21.94 152.242 21.3613 152.541 20.82C152.858 20.2787 153.203 19.84 153.577 19.504C153.969 19.168 154.361 19 154.753 19C154.846 19 154.939 19.0187 155.033 19.056C155.145 19.0747 155.247 19.1027 155.341 19.14C155.173 19.2893 154.967 19.5693 154.725 19.98C154.501 20.372 154.286 20.8293 154.081 21.352C153.875 21.856 153.698 22.36 153.549 22.864C153.418 23.368 153.353 23.7973 153.353 24.152C153.353 24.712 153.446 25.1227 153.633 25.384C153.819 25.6267 154.062 25.748 154.361 25.748C154.753 25.748 155.219 25.5427 155.761 25.132C156.302 24.7027 156.834 24.1613 157.357 23.508C156.834 23.0787 156.423 22.5187 156.125 21.828C155.845 21.1187 155.705 20.4 155.705 19.672C155.705 19.056 155.807 18.4773 156.013 17.936C156.237 17.3947 156.554 16.9653 156.965 16.648C157.375 16.312 157.87 16.144 158.449 16.144C159.214 16.144 159.727 16.3493 159.989 16.76C160.25 17.1707 160.381 17.684 160.381 18.3C160.381 19.028 160.203 19.84 159.849 20.736C159.494 21.6133 159.046 22.4627 158.505 23.284C158.841 23.4707 159.195 23.564 159.569 23.564C159.867 23.564 160.203 23.508 160.577 23.396C160.95 23.2653 161.314 23.0507 161.669 22.752C162.042 22.4533 162.341 22.052 162.565 21.548L162.901 21.828C162.527 22.7053 161.995 23.3307 161.305 23.704C160.633 24.0587 159.989 24.236 159.373 24.236C159.13 24.236 158.897 24.2173 158.673 24.18C158.449 24.124 158.234 24.0493 158.029 23.956C157.394 24.796 156.694 25.496 155.928 26.056C155.182 26.616 154.454 26.896 153.745 26.896ZM157.861 22.78C158.327 22.0893 158.71 21.3707 159.008 20.624C159.326 19.8587 159.485 19.14 159.485 18.468C159.485 17.9267 159.401 17.5347 159.233 17.292C159.083 17.0307 158.887 16.9 158.645 16.9C158.271 16.9 157.889 17.1707 157.497 17.712C157.105 18.2533 156.909 18.9347 156.909 19.756C156.909 20.2973 156.983 20.848 157.133 21.408C157.301 21.9493 157.543 22.4067 157.861 22.78Z" fill="black"/>
<path d="M117.728 36.1475C121.096 35.8705 184.979 29.3754 184.979 29.3754C163.944 30.7671 120.852 33.2962 117.516 33.5706C114.181 33.8449 114.361 36.4245 117.728 36.1475Z" fill="black" stroke="black" stroke-linejoin="round"/>
<path d="M119.057 33.9144C119.919 33.8435 120.585 33.7937 121.055 33.8944C121.276 33.9417 121.403 34.0136 121.479 34.0917C121.549 34.1638 121.619 34.2858 121.638 34.5262C121.658 34.7667 121.609 34.8985 121.552 34.981C121.49 35.0705 121.376 35.1621 121.166 35.245C120.719 35.4211 120.053 35.4808 119.192 35.5516C118.331 35.6225 117.664 35.6723 117.194 35.5716C116.973 35.5243 116.846 35.4524 116.77 35.3743C116.7 35.3022 116.63 35.1802 116.611 34.9398C116.591 34.6993 116.64 34.5675 116.697 34.485C116.759 34.3955 116.873 34.3039 117.083 34.2211C117.53 34.0449 118.196 33.9852 119.057 33.9144Z" fill="white" stroke="black"/>
<path d="M121.5 30.5C120.667 36.6667 109 40.5 93.5 40.5C74.5 40.5 69.8641 31.1272 63 32.5C53 34.5 54 39 37 40.5C23.4 41.7 7.66668 35.6667 2.50001 32.5C1.00001 30.3333 -1.09999 25 2.50001 21C7.00001 16 12.5 16 9.5 11.5" stroke="black" stroke-linecap="round"/>
</svg>
