<?xml version="1.0" standalone="no"?>
<!DOCTYPE svg PUBLIC "-//W3C//DTD SVG 20010904//EN"
 "http://www.w3.org/TR/2001/REC-SVG-20010904/DTD/svg10.dtd">
<svg version="1.0" xmlns="http://www.w3.org/2000/svg"
 width="96.000000pt" height="96.000000pt" viewBox="0 0 96.000000 96.000000"
 preserveAspectRatio="xMidYMid meet">
<metadata>
Created by potrace 1.14, written by Peter Selinger 2001-2017
</metadata>
<g transform="translate(0.000000,96.000000) scale(0.100000,-0.100000)"
fill="#000000" stroke="none">
<path d="M63 940 c-64 -39 -81 -127 -35 -189 17 -24 17 -29 4 -61 -8 -19 -15
-69 -15 -110 -2 -94 21 -138 89 -170 46 -23 108 -22 144 0 23 14 -2 35 -26 22
-47 -25 -127 2 -161 54 -32 49 -14 227 21 207 25 -14 256 -206 256 -212 0 -4
-14 -12 -30 -18 -20 -8 -28 -16 -24 -26 5 -13 10 -14 39 -1 57 23 30 40 325
-201 41 -34 102 -84 136 -111 33 -27 82 -67 108 -88 34 -28 50 -36 58 -28 10
10 -42 78 -294 383 -48 59 -88 109 -88 112 0 8 88 20 140 19 55 0 87 -12 128
-46 48 -41 90 -171 71 -223 -5 -15 -4 -23 6 -27 46 -17 35 132 -16 224 -24 41
-80 84 -129 97 -41 11 -152 7 -193 -7 -33 -11 -34 -10 -187 182 -3 4 -11 3
-18 -1 -10 -6 4 -31 57 -96 39 -49 71 -92 71 -95 0 -4 -26 -14 -57 -23 l-57
-15 -41 31 c-22 17 -45 36 -51 42 -6 5 -64 53 -128 105 -128 105 -151 140
-127 198 13 31 58 62 91 62 47 0 105 -45 90 -70 -7 -12 -13 -10 -34 9 -29 27
-80 31 -104 8 -33 -34 -3 -112 51 -131 38 -14 76 6 83 44 10 46 30 57 53 29
18 -22 20 -23 27 -6 4 12 1 24 -8 34 -13 12 -13 21 -4 45 9 25 8 32 -8 43 -13
10 -24 11 -37 4 -14 -7 -27 -5 -48 6 -41 21 -90 19 -128 -5z m87 -85 c0 -8
-34 -45 -42 -45 -10 0 -11 34 -1 43 7 8 43 9 43 2z m18 -57 c-7 -12 -14 -25
-15 -27 -1 -1 -7 0 -13 4 -8 5 -4 15 11 31 27 29 35 25 17 -8z m409 -356 c26
-32 64 -78 83 -102 19 -24 58 -71 85 -104 28 -34 57 -70 65 -81 14 -19 14 -19
-5 -4 -116 92 -385 313 -385 315 0 3 87 32 102 33 3 1 28 -25 55 -57z"/>
<path d="M321 777 c-9 -11 -8 -17 4 -27 12 -10 16 -9 21 5 9 23 -10 40 -25 22z"/>
<path d="M860 195 c-17 -20 -6 -31 21 -19 18 8 19 11 6 22 -11 10 -17 9 -27
-3z"/>
<path d="M630 170 c-38 -20 -64 -57 -75 -108 -6 -27 -4 -32 12 -32 13 0 19 8
21 27 3 38 28 71 67 90 19 9 35 23 35 30 0 18 -18 16 -60 -7z"/>
</g>
</svg>
